<svg width="42" height="42" viewBox="0 0 42 42" fill="none" xmlns="http://www.w3.org/2000/svg">
<path fill-rule="evenodd" clip-rule="evenodd" d="M40.8044 28H1.19531C4.07816 36.1565 11.8564 42.0001 20.9998 42.0001C30.1433 42.0001 37.9217 36.1565 40.8044 28Z" fill="black"/>
<path fill-rule="evenodd" clip-rule="evenodd" d="M1.19491 28.0001H40.804C41.5779 25.8107 41.9989 23.4547 41.9989 21C41.9989 18.5454 41.5779 16.1894 40.8042 14H1.19467C0.421169 16.1894 0 18.5454 0 21C0 23.4547 0.421169 25.8107 1.19491 28.0001Z" fill="white"/>
<path fill-rule="evenodd" clip-rule="evenodd" d="M1.19531 14.0001H40.8044C37.922 5.84364 30.1433 0 20.9998 0C11.8566 0 4.07816 5.84364 1.19531 14.0001Z" fill="#CE1126"/>
<path fill-rule="evenodd" clip-rule="evenodd" d="M21.0552 21.1207L25.8493 25.5713L25.5082 17.4884C25.458 16.2633 24.3933 16.5443 23.6201 16.9862C22.8367 17.4884 21.9431 17.4883 20.999 17.1568C20.0549 17.4881 19.1613 17.4881 18.3777 16.9862C17.6047 16.5443 16.5402 16.2633 16.49 17.4884L16.1484 25.5711L21.0555 21.1207H21.0552Z" fill="white"/>
<path fill-rule="evenodd" clip-rule="evenodd" d="M21.027 21.1548L25.8214 25.6052L25.9007 25.679L25.896 25.5709L25.5547 17.488C25.5306 16.9011 25.2747 16.6018 24.8407 16.5693C24.496 16.5437 24.0531 16.6902 23.6002 16.9492C22.8641 17.4208 22.0021 17.4625 21.0158 17.1163L21.0011 17.1111L20.9862 17.1163C20.0001 17.4625 19.1382 17.4208 18.4039 16.9504C17.9489 16.6902 17.5062 16.5434 17.1616 16.5693C16.7276 16.602 16.4716 16.9011 16.4476 17.488L16.106 25.5707L16.1016 25.6771L16.1804 25.6057L21.0875 21.1551L21.1726 21.0776H20.9442L21.027 21.1548ZM21.0877 21.0895L21.0574 21.1222L21.0275 21.0893L16.1205 25.5399L16.1949 25.5747L16.5365 17.4917C16.5587 16.9476 16.782 16.6867 17.1681 16.658C17.4913 16.6337 17.9188 16.7754 18.3579 17.0262C19.1153 17.5118 20.0055 17.555 21.0156 17.2003H20.9862C21.9968 17.555 22.8869 17.5118 23.6462 17.0253C24.0832 16.7756 24.511 16.6337 24.8341 16.658C25.2205 16.6869 25.4436 16.9476 25.4658 17.4915L25.8071 25.5747L25.8818 25.5401L21.0877 21.0895Z" fill="#C09300"/>
<path fill-rule="evenodd" clip-rule="evenodd" d="M17.0421 17.209L16.7108 25.0714L16.1484 25.5731L16.4898 17.4904C16.6503 17.3798 16.9317 17.209 17.0421 17.209ZM17.7155 17.7718L17.4343 24.3486L16.872 24.9242L17.2134 17.3299C17.324 17.4402 17.6553 17.7116 17.7155 17.7718ZM18.328 18.2737L18.1073 23.7592L17.6553 24.2006L17.9365 17.9424C18.0468 18.0527 18.2678 18.2135 18.328 18.2737ZM18.9909 18.5551L18.77 23.2302L18.328 23.5886L18.549 18.3845C18.6596 18.4347 18.8803 18.5551 18.9909 18.5551ZM19.6034 18.5551L19.4424 22.4511L18.9907 22.893L19.1615 18.6053C19.2719 18.6053 19.553 18.6053 19.6034 18.5551ZM24.9564 17.209L25.2877 25.0714L25.85 25.5731L25.5087 17.4904C25.3481 17.3798 25.0667 17.209 24.9564 17.209ZM24.283 17.7718L24.5641 24.3486L25.1265 24.9242L24.7851 17.3299C24.6745 17.4402 24.3432 17.7116 24.283 17.7718ZM23.6705 18.2737L23.8912 23.7592L24.3432 24.2006L24.062 17.9424C23.9516 18.0527 23.7307 18.2135 23.6705 18.2737ZM23.0075 18.5551L23.2285 23.2302L23.6705 23.5886L23.4495 18.3845C23.3389 18.4347 23.1181 18.5551 23.0075 18.5551ZM22.395 18.5551L22.556 22.4511L23.0078 22.893L22.837 18.6053C22.7266 18.6053 22.4454 18.6053 22.395 18.5551ZM20.7419 22.0007L20.0645 25.0838L20.3228 25.3421L20.5928 25.1428L20.8455 23.3448L20.74 25.134L20.9995 25.4639L21.2587 25.134L21.1537 23.3359L21.4064 25.1428L21.6759 25.3421L21.9344 25.0838L21.2571 22.0007H20.7419Z" fill="#C09300"/>
<path fill-rule="evenodd" clip-rule="evenodd" d="M18.1602 25.4016L19.9981 25.6828L20.7812 22.1181L19.4958 20.6621L18.1602 25.4016Z" fill="white"/>
<path fill-rule="evenodd" clip-rule="evenodd" d="M20.7599 22.0353L20.8243 22.1084L20.0284 25.7321L18.1055 25.4376L19.4523 20.6643L19.5251 20.6367L19.5395 20.6533L19.5134 20.7478L18.2119 25.3664L19.963 25.6376L20.7333 22.1352L20.7599 22.0353Z" fill="#C09300"/>
<path fill-rule="evenodd" clip-rule="evenodd" d="M19.1972 22.749L20.1126 21.8747L20.0512 21.8105L19.2287 22.592L19.0939 22.2637L19.0117 22.2973L19.1972 22.749Z" fill="#C09300"/>
<path fill-rule="evenodd" clip-rule="evenodd" d="M19.803 23.1194L20.423 22.3078L20.3523 22.2539L19.8679 22.8898L19.698 21.2949L19.6094 21.3043L19.803 23.1194Z" fill="#C09300"/>
<path fill-rule="evenodd" clip-rule="evenodd" d="M20.125 22.5736L20.4267 23.6149L20.5121 23.59L20.2104 22.5488L20.125 22.5736Z" fill="#C09300"/>
<path fill-rule="evenodd" clip-rule="evenodd" d="M19.9383 24.1221L20.0125 24.1711L20.6227 23.2441L20.5485 23.1951L19.9383 24.1221ZM20.0139 24.1385L19.8251 23.0989L19.4098 23.6643L19.2336 23.0371L18.5898 23.6974L18.9149 24.8893L19.3204 24.2246L19.5397 24.8931L20.0027 24.173L19.928 24.1249L19.5659 24.6868L19.3442 24.012L18.9452 24.6635L18.6885 23.7238L19.1902 23.2109L19.3727 23.8612L19.7747 23.3194L19.9264 24.1557L19.9486 24.2596L20.1222 25.0809L20.2092 25.0622L20.0139 24.1385Z" fill="#C09300"/>
<path fill-rule="evenodd" clip-rule="evenodd" d="M18.9044 24.8777L19.1471 25.6838L19.4815 25.1215L19.6707 25.6983L19.7552 25.6703L19.5036 24.9043L19.1744 25.4652L18.9352 24.6719L18.5117 25.2669L18.5841 25.3187L18.9044 24.8777Z" fill="#C09300"/>
<path fill-rule="evenodd" clip-rule="evenodd" d="M22.5081 20.6621L23.8437 25.4014L22.0057 25.6828L21.2227 22.1181L22.5081 20.6621Z" fill="white"/>
<path fill-rule="evenodd" clip-rule="evenodd" d="M21.2383 22.0374L21.1758 22.1084L21.9717 25.7321L23.8946 25.4376L22.5478 20.6643L22.475 20.6367L22.4566 20.6577L22.4867 20.7478L23.7882 25.3664L22.037 25.6376L21.2668 22.1352L21.2383 22.0374Z" fill="#C09300"/>
<path fill-rule="evenodd" clip-rule="evenodd" d="M22.8021 22.749L21.8867 21.8747L21.9481 21.8105L22.7706 22.592L22.9055 22.2637L22.9876 22.2973L22.8021 22.749Z" fill="#C09300"/>
<path fill-rule="evenodd" clip-rule="evenodd" d="M22.1942 23.1194L21.5742 22.3078L21.6449 22.2539L22.1293 22.8898L22.2992 21.2949L22.3879 21.3043L22.1942 23.1194Z" fill="#C09300"/>
<path fill-rule="evenodd" clip-rule="evenodd" d="M21.8754 22.5736L21.5737 23.6149L21.4883 23.59L21.79 22.5488L21.8754 22.5736Z" fill="#C09300"/>
<path fill-rule="evenodd" clip-rule="evenodd" d="M22.0594 24.1221L21.9852 24.1711L21.375 23.2441L21.4492 23.1951L22.0594 24.1221ZM21.9838 24.1385L22.1725 23.0989L22.5879 23.6643L22.764 23.0371L23.4078 23.6974L23.0828 24.8893L22.6772 24.2246L22.4579 24.8931L21.995 24.173L22.0696 24.1249L22.4318 24.6868L22.6534 24.012L23.0524 24.6635L23.3091 23.7238L22.8074 23.2109L22.625 23.8612L22.2229 23.3194L22.0713 24.1557L22.0491 24.2596L21.8755 25.0809L21.7885 25.0622L21.9838 24.1385Z" fill="#C09300"/>
<path fill-rule="evenodd" clip-rule="evenodd" d="M23.0968 24.8777L22.8542 25.6838L22.5198 25.1215L22.3306 25.6983L22.2461 25.6703L22.4976 24.9043L22.8269 25.4652L23.066 24.6719L23.4895 25.2669L23.4172 25.3187L23.0968 24.8777Z" fill="#C09300"/>
<path fill-rule="evenodd" clip-rule="evenodd" d="M24.5145 27.1893C24.8458 27.1291 24.8458 26.9583 24.8458 26.7373C25.1774 26.6269 25.0066 26.2356 25.2376 26.2356C25.0066 26.2958 24.9564 25.8436 24.6753 25.9043C24.6753 25.5123 24.2835 25.4624 23.9519 25.5725C23.2893 25.7937 22.1142 25.8439 20.9995 25.8439C19.8849 25.7937 18.7199 25.7937 18.0469 25.5725C17.7156 25.4624 17.3241 25.5125 17.3241 25.9043C17.0429 25.8436 16.9927 26.2958 16.7617 26.2356C16.9927 26.2356 16.8219 26.6269 17.1533 26.7373C17.1533 26.9583 17.1533 27.1293 17.4949 27.1893C18.2679 27.4102 19.6037 27.5206 20.9995 27.5206C22.3956 27.5206 23.7312 27.4102 24.5145 27.1893Z" fill="white"/>
<path fill-rule="evenodd" clip-rule="evenodd" d="M24.9238 26.7965C25.0395 26.7428 25.1044 26.653 25.1431 26.5258C25.148 26.5102 25.1658 26.4399 25.1686 26.429C25.1919 26.3333 25.2871 26.2171 25.2871 26.2171C25.2871 26.2171 25.1385 26.1443 25.0678 26.0547L25.0402 26.0195C24.9107 25.854 24.8461 25.8151 24.7509 25.8137C24.6977 25.4641 24.3311 25.3594 23.9251 25.4945C23.3546 25.6846 22.3695 25.7614 20.9989 25.7614C20.8962 25.7567 20.7936 25.7525 20.6909 25.7486L20.381 25.7369C19.0568 25.6884 18.5204 25.6415 18.0724 25.4942C17.6333 25.3482 17.2798 25.683 17.2527 25.8151C17.1423 25.819 17.0614 25.8869 16.9578 26.0195L16.9302 26.0547C16.8593 26.1443 16.6992 26.2474 16.6992 26.2474C16.6992 26.2474 16.8061 26.3333 16.8294 26.429C16.832 26.4399 16.85 26.5102 16.8546 26.5258C16.899 26.6709 16.9881 26.7962 17.0702 26.7962C17.0789 27.0956 17.1617 27.2162 17.4797 27.2722C18.2241 27.4853 19.5331 27.6047 20.9989 27.6047C22.4635 27.6047 23.7737 27.4853 24.5362 27.2701C24.8582 27.2123 24.9525 26.9304 24.9238 26.7965ZM20.9989 27.4381C19.5473 27.4381 18.2516 27.3201 17.5171 27.1101C17.2669 27.0657 17.2359 27.0088 17.2359 26.7381V26.6782L17.179 26.6593C17.0873 26.6287 17.0436 26.575 17.0138 26.4773C17.0058 26.4481 16.9983 26.4189 16.9911 26.3895C16.9515 26.2264 16.9543 26.271 16.9543 26.271C16.9543 26.271 17.0231 26.2057 17.0607 26.1578L17.0889 26.1219C17.182 26.0029 17.2298 25.9702 17.3059 25.9866L17.4067 26.008V25.9051C17.4067 25.6275 17.6722 25.5365 18.0201 25.6524C18.4901 25.8067 19.0314 25.854 20.3749 25.9033L20.6846 25.9149C20.7994 25.9194 20.8997 25.9236 20.9949 25.9278C22.3879 25.9278 23.3843 25.8503 23.9779 25.6524C24.3255 25.5367 24.5915 25.6277 24.5915 25.9051V26.008L24.6919 25.9863C24.7682 25.97 24.816 26.0029 24.9089 26.1219L24.9371 26.1578C25.0456 26.2955 25.0444 26.2731 25.0444 26.2731C25.0444 26.2731 25.0181 26.3438 25.0069 26.3895C25.0041 26.401 24.9882 26.4644 24.984 26.4773C24.9544 26.575 24.9107 26.6287 24.819 26.6593L24.7621 26.6782V26.7381C24.7621 27.009 24.7318 27.066 24.4989 27.1082C23.7464 27.3201 22.4495 27.4381 20.9989 27.4381Z" fill="#C09300"/>
<path fill-rule="evenodd" clip-rule="evenodd" d="M20.4465 25.4619C20.4839 25.4619 20.674 25.5723 20.674 25.5723C20.674 25.5723 20.846 25.632 20.8796 25.7209C20.9408 25.8819 20.7942 26.2429 20.7942 26.2429C20.7942 26.2429 20.5737 25.8782 20.3859 25.9039C19.9946 25.954 19.3818 25.9039 19.0505 25.8437C18.7693 25.7933 18.1568 25.6829 17.7648 25.5723C17.6409 25.5182 17.3364 25.7482 17.3241 25.6792C17.3133 25.619 17.279 25.433 17.3684 25.3273C17.5002 25.1719 17.7856 25.1003 17.8754 25.1206C18.2168 25.2309 18.6587 25.3415 19.1007 25.4017C19.5524 25.4619 20.0545 25.5121 20.4465 25.4619Z" fill="white"/>
<path fill-rule="evenodd" clip-rule="evenodd" d="M18.8351 25.848C18.3752 25.7635 18.0298 25.6912 17.7501 25.6118C17.5517 25.5255 17.4845 25.3808 17.5538 25.2425C17.6133 25.1235 17.7606 25.0469 17.8922 25.0768C18.2692 25.1991 18.7046 25.3013 19.1095 25.3563C19.6944 25.4345 20.1105 25.4592 20.4437 25.4165L20.4495 25.4163C20.5795 25.4163 20.6961 25.5255 20.7118 25.6536C20.7297 25.8006 20.6156 25.9166 20.3944 25.9467C20.107 25.9835 19.6604 25.9684 19.2903 25.9226C19.2702 25.9595 19.239 25.9929 19.1928 26.0332C19.1188 26.0981 19.0504 26.2068 19.0504 26.2068C19.0504 26.2068 18.9879 26.0923 18.9291 26.0162C18.9214 26.0069 18.9174 26.0013 18.9139 25.9968C18.8719 25.9422 18.8456 25.8967 18.8351 25.848ZM19.3162 25.8363C19.6765 25.8795 20.1077 25.8937 20.383 25.8585C20.5596 25.8344 20.635 25.7581 20.6233 25.6643C20.6133 25.5799 20.5685 25.5052 20.4495 25.5052C20.2239 25.5283 19.6898 25.5236 19.0976 25.4445C18.6806 25.3859 18.2694 25.2916 17.8686 25.1627C17.7823 25.1431 17.6749 25.1988 17.6332 25.2824C17.5886 25.3715 17.6311 25.463 17.7802 25.5283C18.0476 25.6037 18.3845 25.6746 18.8325 25.757C18.8341 25.7458 18.8362 25.7343 18.839 25.722L18.8379 25.732C18.8379 25.5969 18.9685 25.4667 19.1034 25.4667C19.2331 25.4667 19.3185 25.634 19.3185 25.7924C19.3185 25.8081 19.3178 25.8228 19.3162 25.8363Z" fill="#C09300"/>
<path fill-rule="evenodd" clip-rule="evenodd" d="M18.9984 25.9629L18.9835 25.9435C18.923 25.8653 18.9069 25.8212 18.9249 25.7428L18.9261 25.733C18.9261 25.6472 19.0166 25.5566 19.1025 25.5566C19.1669 25.5566 19.2285 25.678 19.2285 25.7935C19.2285 25.8695 19.2075 25.9022 19.1335 25.9673C19.1004 25.9962 19.0556 26.0473 19.0556 26.0473C19.0556 26.0473 19.0682 26.0529 18.9984 25.9629Z" fill="white"/>
<path fill-rule="evenodd" clip-rule="evenodd" d="M17.7234 25.1373C17.3739 25.0755 17.1429 25.4703 17.2845 25.7529L17.3263 25.8364L17.3648 25.7515C17.3788 25.7207 17.4126 25.7006 17.5062 25.664C17.6235 25.618 17.6683 25.5916 17.6961 25.5305C17.7222 25.4572 17.7239 25.4143 17.7134 25.3515C17.711 25.3389 17.711 25.3375 17.7103 25.3329C17.7047 25.2932 17.712 25.265 17.7523 25.2062L17.7915 25.1492L17.7234 25.1373Z" fill="#C09300"/>
<path fill-rule="evenodd" clip-rule="evenodd" d="M17.6231 25.346L17.6266 25.367C17.636 25.4109 17.6319 25.4566 17.6147 25.4981C17.6021 25.5254 17.5681 25.5453 17.4747 25.5821C17.3571 25.6281 17.341 25.6482 17.341 25.6482C17.2944 25.454 17.4344 25.2268 17.6453 25.2207C17.6246 25.259 17.6169 25.3029 17.6231 25.346Z" fill="white"/>
<path fill-rule="evenodd" clip-rule="evenodd" d="M20.7343 26.3713L20.8148 26.2609C20.9028 26.1401 20.9525 25.9634 20.9387 25.8162C20.9221 25.641 20.8185 25.5273 20.6412 25.5273H20.5567L20.6046 25.5971C20.6361 25.6431 20.6316 25.6578 20.5866 25.6963L20.5549 25.7222C20.486 25.7793 20.4531 25.8276 20.4531 25.9035C20.4531 25.9548 20.4839 25.9933 20.5437 26.0381C20.5535 26.0456 20.564 26.053 20.578 26.0628L20.613 26.0869C20.6995 26.1473 20.7343 26.1867 20.7343 26.2348V26.3713Z" fill="#C09300"/>
<path fill-rule="evenodd" clip-rule="evenodd" d="M20.6645 26.0145L20.6295 25.9903C20.6188 25.9829 20.6082 25.9754 20.5978 25.9676C20.5591 25.9385 20.543 25.9186 20.543 25.9042C20.543 25.8612 20.5621 25.8332 20.6127 25.7915L20.6449 25.7646C20.7215 25.6998 20.7147 25.6622 20.7147 25.627C20.7961 25.6512 20.8412 25.7203 20.8512 25.8253C20.8603 25.9214 20.8365 26.0353 20.791 26.1298C20.7807 26.1011 20.7744 26.0908 20.6645 26.0145Z" fill="white"/>
<path fill-rule="evenodd" clip-rule="evenodd" d="M17.8203 25.3202L18.1521 25.4308L18.2564 25.4656L18.1859 25.3811C18.1311 25.3155 17.9563 25.2598 17.8306 25.2598L17.8203 25.3202ZM18.3733 25.4912L18.7653 25.6018L18.7887 25.5444C18.6874 25.4894 18.4624 25.4303 18.3822 25.4303L18.3733 25.4912ZM20.2178 25.6543C20.0988 25.6606 20.0186 25.6758 19.9798 25.708L20.0036 25.7631L20.3949 25.7127L20.3912 25.6508C20.3142 25.6508 20.2703 25.6515 20.2178 25.6543ZM19.3722 25.6546L19.3872 25.7134H19.7785L19.8009 25.6602C19.7295 25.5883 19.4936 25.5881 19.3722 25.6546Z" fill="#C09300"/>
<path fill-rule="evenodd" clip-rule="evenodd" d="M21.5495 25.4619C21.5122 25.4619 21.322 25.5723 21.322 25.5723C21.322 25.5723 21.1501 25.632 21.1165 25.7209C21.0553 25.8819 21.2019 26.2429 21.2019 26.2429C21.2019 26.2429 21.4224 25.8782 21.6102 25.9039C22.0015 25.954 22.6143 25.9039 22.9456 25.8437C23.2268 25.7933 23.8393 25.6829 24.2313 25.5723C24.3552 25.5182 24.6597 25.7482 24.672 25.6792C24.6828 25.619 24.7171 25.433 24.6277 25.3273C24.4959 25.1719 24.2105 25.1003 24.1207 25.1206C23.721 25.249 23.3111 25.3431 22.8954 25.4017C22.4437 25.4619 21.9413 25.5121 21.5495 25.4619Z" fill="white"/>
<path fill-rule="evenodd" clip-rule="evenodd" d="M23.1676 25.848C23.6275 25.7635 23.9729 25.6912 24.2526 25.6118C24.451 25.5255 24.5182 25.3808 24.4489 25.2425C24.3894 25.1235 24.2421 25.0469 24.1105 25.0768C23.7335 25.1991 23.2981 25.3013 22.8932 25.3563C22.3082 25.4345 21.8922 25.4592 21.559 25.4165L21.5534 25.4163C21.4232 25.4163 21.3065 25.5255 21.2909 25.6536C21.2729 25.8006 21.387 25.9166 21.6082 25.9467C21.8957 25.9835 22.3423 25.9684 22.7124 25.9226C22.7324 25.9595 22.7637 25.9929 22.8099 26.0332C22.8839 26.0981 22.9522 26.2068 22.9522 26.2068C22.9522 26.2068 23.0148 26.0923 23.0736 26.0162C23.0813 26.0069 23.0852 26.0013 23.0887 25.9968C23.1307 25.9422 23.1571 25.8967 23.1676 25.848ZM22.6865 25.8363C22.3262 25.8795 21.895 25.8937 21.6197 25.8585C21.443 25.8344 21.3677 25.7581 21.3793 25.6643C21.3894 25.5799 21.4342 25.5052 21.5532 25.5052C21.7788 25.5283 22.3129 25.5236 22.9051 25.4445C23.3221 25.3859 23.7332 25.2916 24.1341 25.1627C24.2204 25.1431 24.3278 25.1988 24.3695 25.2824C24.4141 25.3715 24.3716 25.463 24.2225 25.5283C23.9551 25.6037 23.6182 25.6746 23.1702 25.757C23.1685 25.7452 23.1663 25.7335 23.1636 25.722L23.1648 25.732C23.1648 25.5969 23.0341 25.4667 22.8993 25.4667C22.7695 25.4667 22.6841 25.634 22.6841 25.7924C22.6841 25.8081 22.6848 25.8228 22.6865 25.8363Z" fill="#C09300"/>
<path fill-rule="evenodd" clip-rule="evenodd" d="M23.0035 25.9629L23.0184 25.9435C23.0789 25.8653 23.095 25.8212 23.077 25.7428L23.0758 25.733C23.0758 25.6472 22.9853 25.5566 22.8994 25.5566C22.835 25.5566 22.7734 25.678 22.7734 25.7935C22.7734 25.8695 22.7944 25.9022 22.8684 25.9673C22.9015 25.9962 22.9463 26.0473 22.9463 26.0473C22.9463 26.0473 22.9337 26.0529 23.0035 25.9629Z" fill="white"/>
<path fill-rule="evenodd" clip-rule="evenodd" d="M24.2752 25.1373C24.6247 25.0755 24.8557 25.4703 24.7141 25.7529L24.6723 25.8364L24.6338 25.7515C24.6198 25.7207 24.586 25.7006 24.4924 25.664C24.375 25.618 24.3302 25.5916 24.3025 25.5305C24.2763 25.4572 24.2747 25.4143 24.2852 25.3515C24.2875 25.3389 24.2875 25.3375 24.2882 25.3329C24.2938 25.2932 24.2866 25.265 24.2462 25.2062L24.207 25.1492L24.2752 25.1373Z" fill="#C09300"/>
<path fill-rule="evenodd" clip-rule="evenodd" d="M24.3776 25.346L24.3741 25.367C24.3647 25.4109 24.3689 25.4566 24.386 25.4981C24.3986 25.5254 24.4327 25.5453 24.526 25.5821C24.6436 25.6281 24.6597 25.6482 24.6597 25.6482C24.7064 25.454 24.5664 25.2268 24.3555 25.2207C24.3653 25.2396 24.3863 25.2837 24.3776 25.346Z" fill="white"/>
<path fill-rule="evenodd" clip-rule="evenodd" d="M21.2653 26.3713L21.1848 26.2609C21.0968 26.1401 21.0471 25.9634 21.0609 25.8162C21.0774 25.641 21.181 25.5273 21.3584 25.5273H21.4428L21.395 25.5971C21.3635 25.6431 21.3679 25.6578 21.413 25.6963L21.4447 25.7222C21.5135 25.7793 21.5464 25.8276 21.5464 25.9035C21.5464 25.9548 21.5156 25.9933 21.4559 26.0381C21.4446 26.0466 21.4332 26.0548 21.4216 26.0628L21.3866 26.0869C21.3 26.1473 21.2653 26.1867 21.2653 26.2348V26.3713Z" fill="#C09300"/>
<path fill-rule="evenodd" clip-rule="evenodd" d="M21.337 26.0145L21.372 25.9903C21.3851 25.9814 21.3949 25.9744 21.4038 25.9676C21.4425 25.9385 21.4586 25.9186 21.4586 25.9042C21.4586 25.8612 21.4395 25.8332 21.3888 25.7915L21.3566 25.7646C21.2801 25.6998 21.2869 25.6622 21.2869 25.627C21.2054 25.6512 21.1604 25.7203 21.1504 25.8253C21.1413 25.9214 21.1651 26.0353 21.2106 26.1298C21.2208 26.1011 21.2271 26.0908 21.337 26.0145Z" fill="white"/>
<path fill-rule="evenodd" clip-rule="evenodd" d="M24.184 25.3202L23.8522 25.4308L23.7479 25.4656L23.8184 25.3811C23.8732 25.3155 24.048 25.2598 24.1737 25.2598L24.184 25.3202ZM23.631 25.4912L23.239 25.6018L23.2157 25.5444C23.3169 25.4894 23.5419 25.4303 23.6221 25.4303L23.631 25.4912ZM21.7865 25.6543C21.9055 25.6606 21.9857 25.6758 22.0245 25.708L22.0007 25.7631L21.6094 25.7127L21.6131 25.6508C21.6901 25.6508 21.734 25.6515 21.7865 25.6543ZM22.6321 25.6546L22.6171 25.7134H22.2258L22.2034 25.6602C22.2748 25.5883 22.5107 25.5881 22.6321 25.6546Z" fill="#C09300"/>
<path fill-rule="evenodd" clip-rule="evenodd" d="M17.7335 26.1732C17.6962 26.1662 17.6766 26.1365 17.6859 26.1015C17.6976 26.0588 17.7314 26.0343 17.7638 26.0458C17.7844 26.053 17.8219 26.091 17.8222 26.1046C17.8222 26.1202 17.8023 26.1573 17.7939 26.1573C17.7902 26.1573 17.7846 26.1606 17.7811 26.1643C17.7741 26.1727 17.7522 26.1767 17.7335 26.1732ZM21.5786 26.4476C21.5646 26.4424 21.5425 26.4112 21.5427 26.3969C21.5427 26.3699 21.5828 26.3258 21.6076 26.3253C21.6199 26.3253 21.6535 26.3428 21.6659 26.3556C21.6888 26.3794 21.6839 26.4184 21.6552 26.4403C21.6412 26.4513 21.5992 26.4553 21.5786 26.4476ZM21.6038 26.6212C21.5744 26.6111 21.5637 26.5969 21.5614 26.5642C21.5588 26.5302 21.5621 26.525 21.598 26.5054L21.6237 26.4914L21.6479 26.5022C21.6815 26.5171 21.6965 26.5334 21.6976 26.5558C21.6988 26.5803 21.6808 26.6053 21.6528 26.6177C21.6281 26.6289 21.6267 26.6289 21.6038 26.6212Z" fill="#C09300"/>
<path fill-rule="evenodd" clip-rule="evenodd" d="M18.043 25.8594C18.0188 25.8587 17.9856 25.8809 17.9665 25.8921C17.921 25.9028 17.868 25.9308 17.8242 25.9009C17.781 25.8876 17.7238 25.8981 17.7171 25.9513C17.7283 25.9968 17.7922 26.023 17.8309 25.9929C17.8596 25.9553 17.938 25.9331 17.9469 25.9973C17.9147 26.0456 17.9184 26.1098 17.8921 26.1613C17.887 26.1934 17.8751 26.2239 17.8571 26.2509C17.8246 26.2542 17.7903 26.2505 17.763 26.2705C17.7407 26.2715 17.7188 26.2776 17.6991 26.2882C17.6794 26.2988 17.6623 26.3138 17.6492 26.3319C17.6212 26.3723 17.5941 26.4136 17.5859 26.463C17.5934 26.5139 17.6513 26.5284 17.6951 26.5309C17.7418 26.5438 17.7885 26.5606 17.8351 26.5748C17.9112 26.5918 17.9824 26.6191 18.0584 26.6359C18.1693 26.6693 18.2857 26.6849 18.3975 26.7148C18.4091 26.7185 18.4201 26.7218 18.4325 26.7234C18.4787 26.733 18.5029 26.6826 18.5069 26.6448C18.5298 26.5636 18.5473 26.481 18.5701 26.3998C18.586 26.3671 18.6051 26.2934 18.5419 26.31C18.5057 26.3317 18.4752 26.3641 18.4301 26.3669C18.369 26.3704 18.404 26.4332 18.428 26.4588C18.4305 26.4805 18.4287 26.5025 18.4227 26.5236C18.4167 26.5446 18.4066 26.5642 18.393 26.5813C18.3566 26.6044 18.3111 26.5774 18.2726 26.5683C18.2325 26.569 18.152 26.5484 18.1896 26.4936C18.2029 26.4535 18.204 26.4091 18.2201 26.369C18.2407 26.3261 18.2437 26.2792 18.253 26.2337C18.2278 26.1791 18.1844 26.2514 18.1504 26.2575C18.1266 26.2738 18.0379 26.2808 18.0846 26.3233C18.1249 26.3536 18.0939 26.407 18.0869 26.4458C18.0841 26.4994 18.0281 26.5125 17.984 26.5004C17.9401 26.498 17.879 26.4654 17.9163 26.4173C17.9247 26.3769 17.9387 26.3375 17.9467 26.2969C17.9635 26.2479 17.9775 26.2015 17.995 26.1525C18.0024 26.1091 18.0181 26.068 18.0386 26.03C18.0398 25.9821 18.0722 25.9408 18.0713 25.8923C18.0682 25.8685 18.0575 25.8599 18.043 25.8594ZM17.7915 26.3669C17.7967 26.366 17.802 26.3669 17.8067 26.3692C17.8242 26.3765 17.8249 26.3907 17.8067 26.4063C17.799 26.4131 17.7901 26.4196 17.7871 26.4194C17.7544 26.4166 17.7446 26.4117 17.7434 26.3998C17.742 26.3891 17.7455 26.386 17.7675 26.3755C17.7751 26.3716 17.7832 26.3687 17.7915 26.3669ZM17.7189 26.7183C17.6842 26.6856 17.6898 26.6618 17.7411 26.6236C17.763 26.6072 17.7763 26.6091 17.8018 26.632C17.8403 26.6672 17.8417 26.6896 17.8076 26.7197C17.7908 26.7349 17.7833 26.7379 17.7637 26.7379C17.7432 26.7381 17.7374 26.7356 17.7189 26.7183ZM17.9324 26.7827C17.9244 26.7808 17.9169 26.7773 17.9104 26.7724C17.9038 26.7674 17.8983 26.7612 17.8942 26.7541C17.8901 26.747 17.8875 26.7391 17.8866 26.7309C17.8857 26.7228 17.8864 26.7145 17.8888 26.7066C17.8979 26.6763 17.903 26.6733 17.9476 26.6728C17.9978 26.6721 18.0073 26.6805 18.0078 26.7246C18.0083 26.7493 18.0062 26.7552 17.9938 26.7666C17.9854 26.7736 17.9755 26.7787 17.9649 26.7814C17.9543 26.7842 17.9432 26.7847 17.9324 26.7827ZM24.1702 26.7883C24.1543 26.775 24.151 26.7692 24.1508 26.7524C24.1508 26.7234 24.1671 26.7024 24.2031 26.6861C24.2509 26.6646 24.2703 26.6674 24.2882 26.6992C24.3123 26.7412 24.3111 26.7584 24.2824 26.7869C24.2665 26.8025 24.2637 26.8032 24.2276 26.8037C24.1919 26.8039 24.1879 26.803 24.1702 26.7883ZM18.2159 26.8688C18.1903 26.8618 18.1772 26.8429 18.177 26.8123C18.1767 26.789 18.1784 26.7853 18.1947 26.7724C18.2066 26.7636 18.2204 26.7576 18.2351 26.7552C18.2537 26.7528 18.2607 26.7542 18.2757 26.765C18.3142 26.792 18.3223 26.8186 18.3002 26.8448C18.2764 26.8725 18.2537 26.8788 18.2159 26.8688ZM19.7504 26.9374C19.7448 26.9304 19.7322 26.9262 19.731 26.9173C19.7333 26.8784 19.735 26.8392 19.7473 26.8018C19.7543 26.7654 19.7483 26.7272 19.7611 26.6915C19.7742 26.6266 19.7742 26.5596 19.7891 26.4952C19.7891 26.4619 19.7937 26.4288 19.8026 26.3968C19.8136 26.3464 19.8036 26.2934 19.8185 26.2435C19.8169 26.2248 19.8386 26.1746 19.8575 26.2043C19.885 26.2446 19.9212 26.2775 19.9569 26.3104C19.9874 26.3282 19.9592 26.3541 19.9382 26.3629C19.909 26.3746 19.902 26.4063 19.9041 26.4346C19.9002 26.4635 19.8885 26.491 19.8873 26.5207C19.881 26.5641 19.8822 26.6084 19.8766 26.652C19.864 26.6945 19.8687 26.7402 19.8645 26.7841C19.8652 26.8121 19.8519 26.8373 19.8537 26.8653C19.8502 26.8938 19.8491 26.9278 19.825 26.9474C19.8022 26.9591 19.769 26.9568 19.7504 26.9374ZM21.8294 26.2514C21.7955 26.2771 21.7654 26.3072 21.7353 26.3368C21.6938 26.3681 21.7694 26.3865 21.779 26.4133C21.7902 26.4544 21.7895 26.498 21.7923 26.5403C21.8046 26.5788 21.8102 26.6198 21.8074 26.6604C21.8039 26.7041 21.747 26.695 21.7223 26.7195C21.6877 26.7339 21.674 26.7678 21.6476 26.7918C21.6306 26.8254 21.6259 26.8672 21.6238 26.9054C21.6261 26.9369 21.6026 26.9719 21.6238 26.9995L21.6324 27.0128C21.6394 27.0228 21.6565 27.0146 21.6674 27.017C21.7027 27.0151 21.7395 27.0202 21.7724 27.006C21.8571 26.9915 21.9428 26.9904 22.0284 26.9864C22.0809 26.988 22.1313 26.9698 22.1838 26.971C22.2249 26.9803 22.2433 26.9358 22.2428 26.9033C22.2195 26.8576 22.2396 26.8032 22.2209 26.7568C22.2046 26.7097 22.2109 26.6567 22.2034 26.6079C22.2025 26.5697 22.1537 26.5554 22.129 26.5839C22.1052 26.6082 22.0664 26.6128 22.048 26.6429C22.0275 26.6849 22.0921 26.6852 22.1028 26.7174C22.1152 26.75 22.111 26.786 22.1138 26.82C22.1217 26.8616 22.0767 26.8639 22.048 26.8683C22.0107 26.8823 21.9577 26.8917 21.9365 26.8464C21.9232 26.8128 21.9248 26.7769 21.9213 26.7414C21.9204 26.6789 21.9052 26.6177 21.9015 26.5554C21.898 26.4787 21.8847 26.4024 21.8798 26.3258C21.8791 26.2939 21.8746 26.2418 21.8294 26.2514ZM21.7855 26.8289L21.8074 26.8312L21.8098 26.8574L21.8119 26.8835L21.7834 26.8924C21.7741 26.8951 21.7645 26.8973 21.7549 26.8989C21.7549 26.8989 21.7489 26.8952 21.7419 26.89C21.7265 26.8791 21.7302 26.8632 21.7505 26.842C21.7622 26.8303 21.7673 26.828 21.7855 26.8289ZM19.6881 26.1793C19.6615 26.1886 19.6276 26.2278 19.6006 26.2274C19.539 26.2318 19.5476 26.2918 19.5919 26.3128C19.5975 26.331 19.5922 26.3538 19.594 26.3739C19.6027 26.4292 19.5677 26.4738 19.5742 26.5293C19.5712 26.5902 19.5527 26.6495 19.5501 26.7108C19.5329 26.7741 19.5327 26.8392 19.5217 26.9033C19.5147 26.961 19.4727 26.9407 19.4365 26.9253C19.4363 26.9003 19.4347 26.8758 19.4342 26.8508C19.4494 26.7937 19.4034 26.7769 19.3576 26.7699C19.3098 26.7745 19.2862 26.7332 19.2965 26.6912C19.317 26.6667 19.3689 26.6735 19.4015 26.6693C19.4701 26.6835 19.4673 26.5916 19.4321 26.5599C19.408 26.5155 19.3481 26.4964 19.3315 26.4507C19.3383 26.39 19.2979 26.3293 19.2484 26.2997C19.1721 26.2943 19.1145 26.3601 19.0865 26.4243C19.0548 26.4336 19.0233 26.443 18.9925 26.4549C18.9428 26.4675 18.8721 26.5533 18.94 26.5862C18.978 26.5967 19.094 26.6231 19.0426 26.6758C19.0139 26.7253 18.9586 26.7262 18.9092 26.7132C18.8585 26.7132 18.8023 26.6884 18.8042 26.6299C18.7939 26.5774 18.7955 26.5209 18.7715 26.4724C18.761 26.4138 18.6945 26.4273 18.6905 26.4812C18.6392 26.5186 18.6462 26.5792 18.6819 26.6236C18.7041 26.6744 18.6819 26.7337 18.66 26.7808C18.6464 26.8422 18.579 26.8443 18.5309 26.8639C18.5071 26.8732 18.4168 26.8585 18.45 26.9099C18.5027 26.9285 18.5657 26.9453 18.6205 26.9318C18.6782 26.9248 18.7281 26.8851 18.7561 26.8357C18.7948 26.7965 18.8611 26.817 18.9115 26.8158C18.9656 26.8158 19.0209 26.8539 19.0734 26.8289C19.0886 26.7895 19.1588 26.7244 19.1805 26.7918C19.1768 26.8522 19.2302 26.8847 19.2855 26.8772C19.3462 26.8737 19.3236 26.9199 19.3229 26.9558C19.3268 27.0212 19.3688 27.0557 19.4232 27.0828C19.4419 27.0877 19.4615 27.086 19.4802 27.0828C19.5327 27.0664 19.5889 27.0431 19.605 26.9843C19.626 26.9367 19.6267 26.8828 19.6423 26.8333C19.6545 26.7542 19.6703 26.6751 19.6727 26.5949C19.692 26.5223 19.6867 26.4455 19.7011 26.3718C19.7105 26.3172 19.7175 26.2624 19.7231 26.2078C19.7165 26.1786 19.7039 26.1737 19.6881 26.1793ZM19.2134 26.4703C19.2239 26.4714 19.2298 26.4845 19.2309 26.5076C19.2319 26.5328 19.2454 26.5536 19.2613 26.5578C19.2743 26.561 19.2729 26.5746 19.2594 26.5839C19.2512 26.5895 19.2368 26.5928 19.2111 26.5928C19.1707 26.5925 19.1458 26.582 19.1236 26.5601L19.1105 26.5468L19.1301 26.5337C19.1402 26.526 19.1581 26.5104 19.1698 26.4987C19.1896 26.4784 19.2027 26.4689 19.2134 26.4703ZM23.8356 25.9189C23.7964 25.9208 23.7576 25.9267 23.7196 25.9364C23.6468 25.9317 23.6102 26.0083 23.6802 26.0458C23.7222 26.1532 23.7882 26.0237 23.8552 26.0325C23.956 26.0521 23.9644 26.1609 23.98 26.2425C23.9856 26.3237 24.0089 26.4024 24.0325 26.4789C24.0997 26.5536 23.9821 26.6007 23.9319 26.5424C23.889 26.4957 23.7973 26.4388 23.746 26.5029C23.6827 26.5298 23.6799 26.6142 23.6277 26.6385C23.5432 26.6642 23.5325 26.5603 23.4877 26.516C23.4466 26.4584 23.368 26.4532 23.304 26.4329C23.2739 26.3723 23.2896 26.2687 23.2275 26.2274C23.1752 26.2486 23.0796 26.3464 23.1598 26.3914C23.2378 26.4586 23.1255 26.4894 23.0898 26.5358C23.0385 26.5928 23.0303 26.6712 23.0219 26.7435C22.9337 26.7925 22.9165 26.6884 22.906 26.6233C22.899 26.5454 22.8334 26.5683 22.7877 26.597C22.7212 26.624 22.6878 26.6873 22.6411 26.737C22.6355 26.7825 22.6437 26.8319 22.6435 26.8793C22.6586 26.936 22.7275 26.9094 22.7702 26.9054C22.8388 26.8767 22.8668 26.9493 22.8117 26.9908C22.7744 27.0382 22.6565 27.0135 22.6675 27.0893C22.7055 27.0937 22.7452 27.0923 22.7835 27.0893C22.8598 27.0683 22.9417 27.0146 22.9496 26.9295C22.9596 26.8555 23.0663 26.8688 23.1246 26.8529C23.1974 26.8319 23.2854 26.8266 23.3019 26.9185C23.3514 26.9708 23.4592 27.0296 23.514 26.9582C23.5405 26.9417 23.5618 26.9183 23.5757 26.8904C23.5896 26.8626 23.5954 26.8314 23.5927 26.8004C23.5815 26.7456 23.6816 26.7435 23.7065 26.7743C23.7429 26.8343 23.857 26.8165 23.9121 26.7829C23.9704 26.7398 23.9833 26.6637 24.0675 26.6625C24.1921 26.6252 24.3218 26.6037 24.4436 26.5575C24.5423 26.5361 24.4289 26.4738 24.4042 26.4374C24.3291 26.4 24.2637 26.5522 24.179 26.4768C24.1137 26.4266 24.1179 26.3314 24.0936 26.2579C24.0771 26.163 24.0813 26.0533 24.0127 25.9779C23.9658 25.928 23.9018 25.9159 23.8356 25.9189ZM23.3586 26.5816C23.3675 26.5816 23.3773 26.5858 23.3936 26.5949C23.4244 26.6117 23.4461 26.6399 23.4461 26.6625C23.4461 26.6775 23.4424 26.6786 23.42 26.6889C23.409 26.6948 23.3972 26.6991 23.385 26.702C23.3722 26.702 23.3411 26.677 23.3411 26.667C23.3394 26.6558 23.3365 26.6449 23.3325 26.6343C23.3241 26.6117 23.3255 26.6121 23.3369 26.597C23.3439 26.5874 23.35 26.5818 23.3586 26.5816ZM23.816 26.6058C23.8419 26.604 23.8575 26.6121 23.8685 26.632C23.8811 26.6551 23.8724 26.6728 23.84 26.6868C23.8301 26.6915 23.8198 26.6951 23.8092 26.6978C23.8071 26.6975 23.7954 26.6905 23.7831 26.6824C23.7642 26.67 23.7614 26.6637 23.7611 26.6497C23.7611 26.6275 23.7856 26.6077 23.816 26.6058ZM23.1902 26.6124C23.1979 26.6112 23.2049 26.6152 23.2142 26.6233C23.2268 26.6341 23.231 26.6427 23.234 26.6649C23.2361 26.6793 23.2361 26.694 23.234 26.7085C23.2305 26.7244 23.2303 26.7237 23.1946 26.7239C23.1498 26.7244 23.1456 26.7192 23.1465 26.6779C23.147 26.6516 23.1472 26.6446 23.1617 26.6299C23.1731 26.6184 23.1827 26.6135 23.1902 26.6124ZM22.8052 26.7129C22.8192 26.7162 22.8325 26.7269 22.836 26.7435C22.8406 26.7659 22.8364 26.7759 22.8185 26.785C22.8028 26.793 22.7671 26.7958 22.7571 26.7897C22.7518 26.7863 22.7474 26.7817 22.744 26.7764C22.7394 26.768 22.7401 26.7638 22.7464 26.7589C22.7503 26.7554 22.755 26.7505 22.755 26.7479C22.755 26.7456 22.7597 26.7365 22.766 26.7283C22.7703 26.7222 22.7763 26.7174 22.7832 26.7147C22.7902 26.712 22.7978 26.7113 22.8052 26.7129ZM23.4527 26.796C23.4653 26.796 23.4758 26.8004 23.4835 26.807C23.4963 26.8184 23.4958 26.835 23.4811 26.8464C23.4718 26.8536 23.4202 26.8529 23.4025 26.8464C23.3946 26.8434 23.3915 26.8394 23.3915 26.831C23.3915 26.8212 23.3941 26.8151 23.4111 26.807C23.4241 26.8004 23.4382 26.7967 23.4527 26.796ZM22.2508 27.1334C22.244 27.129 22.2342 27.1252 22.2442 27.118C22.2561 27.0968 22.2804 27.0893 22.3019 27.0816C22.3402 27.0643 22.3734 27.0373 22.398 27.0032C22.4015 26.9799 22.4276 26.9673 22.4276 26.943C22.4276 26.9096 22.4297 26.8756 22.4216 26.8431C22.4115 26.814 22.3908 26.7897 22.3637 26.775C22.3457 26.761 22.3166 26.7568 22.31 26.7318C22.3063 26.708 22.3278 26.6898 22.3352 26.6684C22.3509 26.6387 22.3639 26.6077 22.3807 26.579C22.3989 26.5589 22.4269 26.5778 22.4363 26.5974C22.45 26.6166 22.4606 26.6378 22.4678 26.6602C22.4888 26.6835 22.5077 26.7106 22.5154 26.7416C22.5256 26.7633 22.5422 26.7836 22.541 26.8093C22.541 26.8382 22.5576 26.8644 22.5567 26.8935C22.5576 26.9327 22.5576 26.9738 22.5431 27.0109C22.5333 27.0314 22.5137 27.0436 22.5007 27.0622C22.4789 27.084 22.4533 27.1014 22.4251 27.1136C22.405 27.1201 22.3931 27.1434 22.3679 27.1378C22.3317 27.1383 22.2953 27.1432 22.2594 27.1374C22.2617 27.1413 22.2487 27.1311 22.2508 27.1334ZM21.7713 27.1649C21.7542 27.1474 21.7505 27.1399 21.7503 27.1229C21.7503 27.1056 21.7535 27.0986 21.7701 27.0818C21.8009 27.0508 21.8158 27.0501 21.8688 27.0769C21.9194 27.1026 21.9365 27.1049 21.9411 27.0867C21.9453 27.0692 21.9745 27.0531 22.0023 27.0531C22.0198 27.0531 22.0296 27.0564 22.0438 27.0671C22.0613 27.0811 22.0622 27.0832 22.0625 27.115C22.0629 27.1474 22.0625 27.1486 22.0422 27.1663C22.0228 27.1836 22.0198 27.1845 21.9955 27.1822C21.9652 27.1791 21.9465 27.1651 21.9418 27.1409C21.9381 27.1234 21.932 27.1192 21.9274 27.1311C21.926 27.135 21.9183 27.1397 21.9106 27.1416C21.8898 27.1492 21.8709 27.1611 21.855 27.1766C21.8485 27.1829 21.8371 27.1857 21.8186 27.1859C21.7939 27.1859 21.7904 27.1845 21.7713 27.1649ZM20.3839 26.5419C20.3372 26.5424 20.2873 26.5816 20.2812 26.6273C20.2917 26.6798 20.3353 26.7314 20.3073 26.7869C20.3267 26.8578 20.2539 26.8849 20.2047 26.8438C20.1746 26.7757 20.1594 26.7013 20.1148 26.6404C20.0586 26.6245 20.0341 26.7143 19.9944 26.7454C20.014 26.7981 20.0712 26.8457 20.0775 26.9115C20.0913 26.9757 20.0523 27.0468 19.9968 27.08C19.9487 27.1259 19.8829 27.1094 19.8239 27.1194C19.7522 27.1614 19.8766 27.1766 19.9093 27.1784C19.9825 27.1859 20.0586 27.1761 20.1125 27.1215C20.1664 27.0958 20.1622 27.0027 20.2264 26.9925C20.3374 26.9876 20.4478 27.0095 20.5589 27.0123C20.6184 27.0263 20.7103 27.0053 20.7514 27.0494C20.7514 27.1269 20.8172 27.1747 20.8804 27.2048C20.9154 27.2144 20.952 27.1712 20.9877 27.163C21.0554 27.1416 21.0346 27.058 21.075 27.0254C21.1907 27.0191 21.3072 27.0205 21.4229 27.0188C21.4448 27.0193 21.4514 26.988 21.4668 26.975C21.4642 26.9304 21.4626 26.8858 21.4558 26.8415C21.4334 26.785 21.4593 26.7125 21.4185 26.6644C21.3604 26.6485 21.3111 26.7017 21.2523 26.7059C21.1875 26.7349 21.1329 26.7946 21.1298 26.8679C21.0913 26.9306 21.03 26.8567 21.051 26.8044C21.0486 26.7815 21.0559 26.7552 21.0489 26.7344C21.0134 26.6919 20.9513 26.7057 20.9023 26.6994C20.8309 26.7022 20.7614 26.6868 20.69 26.6884C20.6277 26.6838 20.5626 26.6938 20.5019 26.6775C20.4296 26.6754 20.4396 26.6049 20.4275 26.555C20.4148 26.5459 20.3994 26.5414 20.3839 26.5419ZM20.5239 26.8C20.5479 26.8004 20.5705 26.8037 20.5939 26.8065C20.6242 26.8116 20.6562 26.7962 20.6858 26.8065C20.7542 26.8182 20.8225 26.8154 20.8914 26.8219C20.9096 26.8217 20.9226 26.8347 20.9352 26.8459V26.9904C20.9329 27.0083 20.9404 27.0324 20.9243 27.045C20.9191 27.0491 20.9131 27.0521 20.9068 27.0538C20.8968 27.0515 20.8873 27.0473 20.879 27.0412C20.8707 27.0352 20.8637 27.0276 20.8585 27.0188C20.8557 26.9939 20.8599 26.9696 20.8608 26.9444C20.8603 26.9379 20.8636 26.9278 20.8608 26.9225C20.8462 26.9115 20.8286 26.9054 20.8104 26.905C20.7509 26.9031 20.6928 26.8987 20.6331 26.8963C20.5838 26.8931 20.5327 26.9005 20.4844 26.8875C20.4658 26.8807 20.4413 26.883 20.4298 26.8634C20.4135 26.8443 20.4371 26.8217 20.4539 26.813C20.4759 26.8035 20.4998 26.799 20.5239 26.8ZM21.3135 26.8175C21.3247 26.8175 21.3282 26.821 21.3333 26.8415C21.3363 26.8548 21.3403 26.8709 21.3419 26.8765C21.3445 26.8849 21.3405 26.8875 21.3289 26.8919C21.2943 26.905 21.2598 26.9036 21.2479 26.8875C21.2425 26.8802 21.2488 26.8571 21.2589 26.8483C21.2792 26.8301 21.3016 26.8175 21.3135 26.8175Z" fill="#C09300"/>
<path fill-rule="evenodd" clip-rule="evenodd" d="M20.9966 22.8581C23.2817 21.1006 23.0857 18.5262 23.0857 18.5262C23.0272 18.5382 22.9676 18.5443 22.9079 18.5444C22.4286 18.5444 21.2853 18.27 21.0186 17.9219C20.733 18.2369 19.5649 18.5444 19.0884 18.5444C19.0282 18.5444 18.9678 18.5383 18.9106 18.5262C18.9106 18.5262 18.7116 21.1006 20.9966 22.8581Z" fill="white"/>
<path fill-rule="evenodd" clip-rule="evenodd" d="M22.2891 21.515C22.655 20.9386 22.9084 20.2981 23.0358 19.6274C23.1181 19.2004 23.1405 18.8349 23.1296 18.565C23.1289 18.5447 23.124 18.4782 23.124 18.4782C23.124 18.4782 22.9662 18.5043 22.9093 18.5043C22.3334 18.5043 21.2778 18.1921 21.0522 17.8976L21.0228 17.8594L20.9903 17.8951C20.7407 18.1704 19.6284 18.5043 19.0901 18.5043C19.0322 18.5043 18.8756 18.4777 18.8756 18.4777C18.8756 18.4777 18.8707 18.5454 18.8698 18.5659C18.8588 18.8368 18.881 19.2029 18.9631 19.6295C19.09 20.2995 19.3427 20.9394 19.7079 21.5153C20.0339 22.0272 20.4527 22.4894 20.9738 22.8903H21.0228C21.5438 22.4894 21.9629 22.027 22.2891 21.515ZM20.9983 22.818C20.516 22.4253 20.0521 21.9059 19.7758 21.4719C19.4161 20.9046 19.1672 20.2743 19.0422 19.6143C18.9613 19.1941 18.9396 18.8342 18.9503 18.5692C18.9921 18.5848 19.0266 18.5848 19.0903 18.5848C19.6487 18.5848 20.7437 18.2866 21.0148 17.9781C21.303 18.2866 22.3304 18.5848 22.9095 18.5848C22.9716 18.5848 23.0493 18.5682 23.0493 18.5682C23.0598 18.8324 23.0379 19.1917 22.9567 19.612C22.8312 20.2727 22.5816 20.9038 22.2212 21.4716C21.8999 21.9761 21.4873 22.4253 20.9983 22.818ZM22.8458 18.6849C22.3199 18.6849 21.3704 18.4243 21.0344 18.1356L21.0148 18.1186L20.9941 18.1342C20.6324 18.4084 19.6419 18.6849 19.1531 18.6849C19.1367 18.6849 19.1195 18.683 19.0994 18.6793L19.0621 18.6723L19.0616 18.7106C19.0613 18.8081 19.0647 18.9057 19.0719 19.0029C19.0943 19.3436 19.1538 19.6899 19.2469 20.028C19.5357 21.0747 20.1268 21.9675 20.9782 22.6455L20.998 22.6614L21.0179 22.6455C21.8698 21.967 22.4615 21.0733 22.7509 20.0259C22.8442 19.6878 22.9042 19.3415 22.9268 19.0008C22.934 18.8898 22.9378 18.7997 22.9371 18.7148V18.6793C22.9371 18.6793 22.865 18.6849 22.8458 18.6849Z" fill="#C09300"/>
<path fill-rule="evenodd" clip-rule="evenodd" d="M20.2578 21.8497C20.4764 22.1157 20.7245 22.3607 21.001 22.5828C21.2556 22.3777 21.4901 22.1488 21.7012 21.8991V18.5354C21.4196 18.4421 21.1662 18.3259 21.0138 18.2031C20.8495 18.3324 20.5663 18.4542 20.2578 18.5501V21.8497Z" fill="white"/>
<path fill-rule="evenodd" clip-rule="evenodd" d="M22.0687 17.5733C22.1729 17.5949 22.2785 17.6094 22.3846 17.6167L22.6243 17.6323L22.4045 17.5352C22.1436 17.42 21.8711 16.4969 21.9028 15.7756C21.9289 15.1323 21.837 14.7569 21.6737 14.5936C21.5334 14.4536 21.0903 14.3199 20.7595 14.3012C20.6666 14.2965 20.6071 14.3308 20.5833 14.391C20.5728 14.4179 20.5735 14.4155 20.5735 14.4155C20.2377 14.3353 19.968 14.3283 19.8331 14.4181C19.7599 14.4671 19.7118 14.5957 19.6973 14.7361C19.6913 14.7973 19.6929 14.8523 19.7034 14.8897C19.72 14.9492 19.7692 14.9779 19.8203 14.937C19.9981 14.7947 20.1682 14.8726 20.335 15.1144C20.4545 15.287 20.4342 15.7957 20.2662 16.3515C20.2018 16.5653 20.0942 16.7939 19.9554 17.0282C19.8415 17.2194 19.7151 17.4028 19.5769 17.5772L19.5195 17.647H19.6098C19.6728 17.647 19.7428 17.6353 19.8191 17.6136C19.9036 17.5888 19.9859 17.5573 20.0653 17.5194C20.1241 17.4918 20.2121 17.444 20.2121 17.444L20.1421 17.7343L20.1211 17.8213L20.2018 17.7828C20.2753 17.7478 20.3488 17.7063 20.4214 17.6598C20.5037 17.6071 20.5807 17.5509 20.6505 17.4946C20.675 17.4748 20.7107 17.4473 20.7107 17.4473L20.9594 17.7107L20.994 17.7469L21.0243 17.707C21.0425 17.6829 21.12 17.5954 21.1351 17.5796C21.1711 17.5422 21.2093 17.5037 21.2478 17.4671C21.2709 17.4449 21.2712 17.4473 21.2712 17.4473L21.2908 17.4643C21.3316 17.4991 21.379 17.5336 21.4322 17.5658C21.5605 17.6437 21.7028 17.6958 21.8564 17.71C21.9119 17.7133 21.9205 17.6734 21.9124 17.6225C21.9062 17.5906 21.8975 17.5592 21.8862 17.5287C21.8825 17.5182 21.9259 17.5432 22.0687 17.573V17.5733Z" fill="white"/>
<path fill-rule="evenodd" clip-rule="evenodd" d="M20.2454 17.3264C20.2095 17.3469 20.0798 17.4186 20.0291 17.4421C19.9538 17.4781 19.8758 17.5081 19.7958 17.5317C19.7267 17.5513 19.7032 17.5541 19.7032 17.5541C19.7032 17.5541 19.7424 17.5021 19.7638 17.4732C19.8584 17.3435 19.9467 17.2095 20.0287 17.0716C20.1708 16.832 20.2811 16.5972 20.3476 16.3763C20.4879 15.9124 20.5296 15.4795 20.469 15.2224C20.4764 15.2138 20.4853 15.2044 20.4965 15.1949C20.5432 15.1538 20.738 15.1977 20.738 15.1977C20.4743 14.7473 20.1752 14.6405 20.0436 14.6486C19.9218 14.6547 19.8464 14.7828 19.8133 14.8551C19.8028 14.864 19.7923 14.8738 19.7823 14.8843C19.7823 14.8843 19.7769 14.7961 19.7823 14.7448C19.7882 14.6749 19.8068 14.6066 19.8371 14.5434C19.8784 14.517 19.9398 14.4914 20.0275 14.4841C20.2305 14.4704 20.2909 14.5005 20.4475 14.6241C20.6038 14.7478 20.7273 14.808 20.804 14.7945C20.8288 14.7914 20.8425 14.8355 20.867 14.8656C20.8864 14.8876 20.881 14.9067 20.955 14.9067C21.0017 14.9067 21.0264 14.8162 21.0565 14.7914C21.095 14.7611 21.1662 14.7476 21.2128 14.7366C21.3118 14.7119 21.3584 14.7147 21.4326 14.7063C21.4683 14.7023 21.5915 14.6981 21.6779 14.7396C21.7812 14.9179 21.8389 15.2506 21.8179 15.7719C21.7845 16.5251 22.0297 17.3213 22.2495 17.5173C22.1948 17.5102 22.1403 17.501 22.0862 17.4897C21.9651 17.4643 21.8753 17.4312 21.8335 17.3934C21.7451 17.2634 21.6727 17.0394 21.6158 16.7498C21.5813 16.5696 21.5547 16.388 21.5362 16.2054C21.5276 16.1231 21.5205 16.0407 21.5148 15.9581L21.4261 15.9635L21.431 16.033C21.4352 16.0878 21.4408 16.149 21.4478 16.2148C21.4674 16.4029 21.494 16.5909 21.5285 16.7669C21.5876 17.0676 21.6634 17.301 21.7602 17.4433L21.7612 17.4426L21.8288 17.6211C21.7038 17.603 21.5839 17.5593 21.4765 17.4928C21.4306 17.4651 21.3869 17.4339 21.3458 17.3994C21.3333 17.3882 21.321 17.3766 21.3092 17.3647C21.2821 17.2753 21.2621 17.0193 21.2502 16.6572C21.2421 16.4042 21.2379 16.1511 21.2378 15.8979H21.1487C21.1486 15.9773 21.1491 16.0566 21.1503 16.1359C21.1524 16.3146 21.1559 16.4934 21.1613 16.66C21.1729 17.0156 21.1916 17.265 21.2201 17.3763C21.154 17.438 21.0902 17.5021 21.029 17.5686C21.0147 17.5842 21.0009 17.6001 20.9874 17.6164L20.7637 17.3817C20.8344 17.2361 20.8908 16.9953 20.9363 16.6829C20.9629 16.5013 20.9839 16.3069 21.0003 16.1126C21.0074 16.0262 21.0135 15.9398 21.0185 15.8533L20.9298 15.8487L20.9254 15.9191C20.9087 16.1703 20.883 16.4207 20.8484 16.67C20.8022 16.9878 20.7438 17.2296 20.6748 17.3607C20.6491 17.3836 20.6231 17.4062 20.5968 17.4284C20.5294 17.4827 20.455 17.5371 20.3754 17.588C20.3054 17.6328 20.2471 17.6619 20.2471 17.6619L20.3147 17.3824C20.4286 17.2517 20.5273 17.0053 20.6146 16.6735C20.6803 16.4143 20.7326 16.1518 20.7711 15.8872L20.6829 15.875C20.6813 15.8872 20.6783 15.9098 20.6731 15.9415C20.6361 16.1801 20.5878 16.4169 20.5285 16.6509C20.444 16.9724 20.3483 17.2107 20.2454 17.3264ZM22.0687 17.5733C22.1729 17.5949 22.2785 17.6094 22.3846 17.6167L22.6243 17.6323L22.4045 17.5352C22.1436 17.42 21.8711 16.4969 21.9028 15.7756C21.9289 15.1323 21.837 14.7569 21.6737 14.5936C21.5334 14.4536 21.0903 14.3199 20.7595 14.3012C20.6666 14.2965 20.6071 14.3308 20.5833 14.391C20.5728 14.4179 20.5735 14.4155 20.5735 14.4155C20.2377 14.3353 19.968 14.3283 19.8331 14.4181C19.7599 14.4671 19.7118 14.5957 19.6973 14.7361C19.6913 14.7973 19.6929 14.8523 19.7034 14.8897C19.72 14.9492 19.7692 14.9779 19.8203 14.937C19.9981 14.7947 20.1682 14.8726 20.335 15.1144C20.4545 15.287 20.4342 15.7957 20.2662 16.3515C20.2018 16.5653 20.0942 16.7939 19.9554 17.0282C19.8415 17.2194 19.7151 17.4028 19.5769 17.5772L19.5195 17.647H19.6098C19.6728 17.647 19.7428 17.6353 19.8191 17.6136C19.9036 17.5888 19.9859 17.5573 20.0653 17.5194C20.1241 17.4918 20.2121 17.444 20.2121 17.444L20.1421 17.7343L20.1211 17.8213L20.2018 17.7828C20.2753 17.7478 20.3488 17.7063 20.4214 17.6598C20.5037 17.6071 20.5807 17.5509 20.6505 17.4946C20.675 17.4748 20.7107 17.4473 20.7107 17.4473L20.9594 17.7107L20.994 17.7469L21.0243 17.707C21.0425 17.6829 21.12 17.5954 21.1351 17.5796C21.1711 17.5422 21.2093 17.5037 21.2478 17.4671C21.2709 17.4449 21.2712 17.4473 21.2712 17.4473L21.2908 17.4643C21.3316 17.4991 21.379 17.5336 21.4322 17.5658C21.5605 17.6437 21.7028 17.6958 21.8564 17.71C21.9119 17.7133 21.9205 17.6734 21.9124 17.6225C21.9062 17.5906 21.8975 17.5592 21.8862 17.5287C21.8825 17.5182 21.9259 17.5432 22.0687 17.573V17.5733Z" fill="#C09300"/>
<path d="M20.9183 14.78C20.9638 14.78 21.0007 14.7431 21.0007 14.6976C21.0007 14.6521 20.9638 14.6152 20.9183 14.6152C20.8728 14.6152 20.8359 14.6521 20.8359 14.6976C20.8359 14.7431 20.8728 14.78 20.9183 14.78Z" fill="white"/>
</svg>
