<svg width="7" height="7" viewBox="0 0 41 46" fill="#001081" xmlns="http://www.w3.org/2000/svg">
<path d="M33.0914 7.65492C36.396 10.9592 38.2861 15.4192 38.3618 20.0918C38.4376 24.7643 36.6932 29.2832 33.4974 32.6929L33.0914 33.1129L24.6054 41.5969C23.5286 42.673 22.0831 43.2995 20.5617 43.3497C19.0403 43.3998 17.5566 42.8698 16.4114 41.8669L16.1234 41.5969L7.63539 33.1109C4.25972 29.7352 2.36328 25.1568 2.36328 20.3829C2.36328 15.609 4.25972 11.0306 7.63539 7.65492C11.0111 4.27925 15.5895 2.38281 20.3634 2.38281C25.1373 2.38281 29.7157 4.27925 33.0914 7.65492ZM20.3634 14.3829C19.5755 14.3829 18.7952 14.5381 18.0673 14.8396C17.3393 15.1412 16.6779 15.5831 16.1207 16.1403C15.5636 16.6974 15.1216 17.3589 14.8201 18.0868C14.5186 18.8148 14.3634 19.595 14.3634 20.3829C14.3634 21.1709 14.5186 21.9511 14.8201 22.679C15.1216 23.407 15.5636 24.0684 16.1207 24.6256C16.6779 25.1827 17.3393 25.6247 18.0673 25.9262C18.7952 26.2277 19.5755 26.3829 20.3634 26.3829C21.9547 26.3829 23.4808 25.7508 24.606 24.6256C25.7312 23.5003 26.3634 21.9742 26.3634 20.3829C26.3634 18.7916 25.7312 17.2655 24.606 16.1403C23.4808 15.0151 21.9547 14.3829 20.3634 14.3829Z" fill="#001081" stroke="#001081" stroke-width="3.86492" stroke-linecap="round" stroke-linejoin="round"/>
</svg>
