<svg width="42" height="42" viewBox="0 0 42 42" fill="none" xmlns="http://www.w3.org/2000/svg">
<g clip-path="url(#clip0_865_7617)">
<path d="M0 42H42V0H0V42Z" fill="#0A6834"/>
<path d="M33.2501 17.6075C33.2467 17.0337 33.024 15.488 32.9675 14.9694C32.9111 14.4509 32.8543 13.9804 32.868 13.8703C32.8815 13.764 33.0451 14.0181 33.1315 14.0386C33.1763 14.0296 33.1563 13.8692 33.075 13.7321C33.02 13.639 32.8324 13.291 32.7186 13.0871C32.6651 12.9906 32.6531 12.9346 32.6273 12.9228C32.6017 12.9109 32.3946 13.3288 32.4172 13.3751C32.4737 13.4601 32.5125 13.5006 32.5213 13.6506C32.5303 13.8006 32.6078 14.8717 32.7067 15.6835C32.7811 16.2959 32.9444 17.6154 32.9502 18.4358C32.9519 18.7034 32.9222 18.9584 32.8865 19.065C32.7951 19.2324 32.6523 19.3834 32.1202 19.6947C31.522 20.0448 30.724 20.3361 30.381 20.5311C30.1678 20.6527 30.2385 20.6689 30.4241 20.6157C30.6093 20.5625 31.567 20.392 32.0323 20.1953C32.4691 20.0103 32.7526 19.7008 32.9678 19.2492C33.2336 18.691 33.2538 18.2172 33.2501 17.6075Z" fill="white"/>
<path d="M31.4042 13.2504C31.4504 13.2325 31.8333 13.2128 31.9363 13.234C31.8686 13.3308 31.4096 13.545 31.4076 13.5843C31.4202 13.6108 31.7247 13.5354 31.8207 13.4935C31.8835 13.4557 31.9254 13.3972 31.9719 13.3487C32.0817 13.2224 32.2119 12.9882 32.1791 12.9588C32.1258 12.9114 31.604 12.9409 31.5353 12.9507C31.4892 12.9573 31.3723 13.1669 31.3508 13.2206C31.3298 13.2744 31.358 13.2683 31.4042 13.2504Z" fill="white"/>
<path d="M32.1801 16.6518C32.2599 16.3816 32.2795 16.0537 32.171 15.7086C32.0594 15.3533 31.7823 15.1367 31.5825 15.0257L31.5469 15.3678C31.5469 15.3678 31.8271 15.507 32.0187 15.8576C32.1401 16.08 32.1907 16.3945 32.0948 16.7451C32.0788 16.8321 32.141 16.7842 32.1801 16.6518Z" fill="white"/>
<path d="M29.2109 18.3687C29.2828 18.1253 29.3004 17.8301 29.2028 17.5194C29.1023 17.1994 28.8528 17.0043 28.6728 16.9047L28.6406 17.2126C28.6406 17.2126 28.8929 17.3381 29.0655 17.6535C29.175 17.8536 29.2203 18.1372 29.1342 18.4528C29.1199 18.5308 29.1758 18.4878 29.2109 18.3687Z" fill="white"/>
<path d="M18.9247 13.709C19.0401 13.9201 19.088 14.219 18.9972 14.552C18.982 14.6346 19.0407 14.5892 19.0781 14.4635C19.1536 14.207 19.1724 13.8954 19.0692 13.5674C18.9632 13.2298 18.7 13.0242 18.5101 12.919L18.4766 13.2438C18.4766 13.2438 18.7428 13.3761 18.9247 13.709Z" fill="white"/>
<path d="M11.9799 13.8187C12.0769 14.0459 12.0834 14.3527 11.9269 14.6759C11.8964 14.7571 11.9705 14.7186 12.0327 14.5971C12.1598 14.3488 12.2311 14.038 12.1667 13.6947C12.1006 13.3418 11.8354 13.1012 11.6369 12.9709L11.5469 13.2934C11.5469 13.2934 11.8271 13.4605 11.9799 13.8187Z" fill="white"/>
<path d="M13.8965 18.8961C14.0197 18.6675 14.071 18.5136 14.1257 18.2428C14.1736 18.0046 14.1767 17.7294 14.1594 17.4492C14.5281 17.2989 14.9674 17.0495 15.115 17.0312C15.0141 17.3778 15.2551 17.7518 15.7418 17.703C15.7791 18.095 15.811 18.4393 15.8304 18.6435C15.8701 19.0621 15.8641 19.5896 15.8629 19.6813C15.8613 19.7734 15.9279 19.756 15.9964 19.5509C16.0877 19.2762 16.1158 18.559 16.0827 18.0847C16.0748 17.9661 16.0614 17.806 16.0452 17.6236C16.3607 17.4776 16.4132 17.1958 16.5312 17.0757C16.6376 17.4487 17.2237 17.4993 17.4046 17.4194C17.6289 17.3203 17.7024 17.142 17.7601 16.7282C17.818 16.3146 17.6495 16.1481 17.5892 16.103C17.5833 16.153 17.4365 16.6392 17.4365 16.6392C17.4365 16.6392 17.5757 16.7862 17.5827 16.8584C17.4693 16.961 17.2303 16.9673 17.0296 16.902C16.8287 16.8366 16.7671 16.7164 16.779 16.6357C16.7907 16.5548 16.8663 16.4812 16.8688 16.3826C16.871 16.284 16.8238 16.3125 16.7434 16.3998C16.663 16.4872 16.6111 16.5658 16.4999 16.7535C16.4089 16.9069 16.2612 17.0942 16.0009 17.1477C15.9579 16.6971 15.9089 16.2177 15.876 15.9166C15.8589 15.7576 15.6875 14.3838 15.6753 14.2301C15.6647 14.0962 15.6449 13.9383 15.6482 13.8641C15.6515 13.8051 15.6884 13.8286 15.7457 13.8903C15.8031 13.952 15.9035 14.0595 15.9208 14.0511C15.9792 14.0224 15.9194 13.8439 15.8429 13.6839C15.7666 13.5236 15.5059 12.891 15.4512 12.8649C15.423 12.8517 15.247 13.2411 15.2366 13.3177C15.2639 13.3657 15.3352 13.4411 15.3377 13.6557C15.3386 13.7155 15.3771 14.2797 15.4305 14.8131C15.4771 15.2843 15.539 15.7313 15.545 15.7832C15.5875 16.1428 15.6391 16.6497 15.6881 17.1479C15.4055 17.0942 15.3304 16.9078 15.3367 16.8015C15.3438 16.6815 15.3979 16.5461 15.372 16.5155C15.3176 16.4828 14.9937 16.6639 14.5419 16.8584C14.4149 16.913 14.2717 16.9716 14.1207 17.0272C14.0813 16.6876 14.0294 16.3647 14.0085 16.1177L14.006 16.0903C14.303 16.0711 14.5463 15.9211 14.6569 15.7783C14.7952 15.5997 14.8918 15.2323 14.9012 14.9507C14.9106 14.6689 14.6832 14.1537 14.629 13.9899C14.5745 13.8259 14.5463 13.7123 14.5415 13.6557C14.5366 13.599 14.6644 13.7213 14.7448 13.7453C14.7992 13.7562 14.7804 13.6383 14.7139 13.5574C14.6478 13.4767 14.2905 12.9344 14.2655 12.9725C14.2501 12.9948 14.1069 13.3937 14.0975 13.4548C14.1539 13.492 14.2198 13.5946 14.2245 13.6929C14.2292 13.7912 14.308 14.2234 14.3952 14.4636C14.4827 14.7038 14.6692 15.1646 14.6809 15.2913C14.5478 15.3852 14.2446 15.5442 13.9447 15.5346C13.8934 15.1144 13.8284 14.6263 13.7936 14.2807C13.7802 14.1471 13.7793 14.0045 13.7814 13.93C13.783 13.871 13.8255 13.8792 13.884 13.9398C13.9427 14.0005 14.0328 14.0887 14.0513 14.0824C14.0916 14.069 14.0567 13.9351 13.9769 13.7762C13.8971 13.6172 13.5801 12.9448 13.5244 12.9197C13.4963 12.9069 13.3543 13.2845 13.3453 13.3616C13.3737 13.4093 13.4463 13.483 13.4535 13.6976C13.4591 13.8684 13.5423 14.7056 13.6136 15.443C13.3169 15.2895 13.2156 15.0701 13.1789 14.7019C13.1533 14.4451 13.1507 13.9722 13.0592 13.5767C13.0076 13.353 12.8989 13.1258 12.77 13.0052C12.7393 13.0795 12.6021 13.5357 12.6021 13.5357C12.6468 13.6667 12.786 14.1078 12.7812 14.49C12.7766 14.8722 12.7464 15.2458 12.3181 15.5032C11.8901 15.7608 11.2482 15.6583 11.0896 15.2566C10.9311 14.8545 11.2835 13.8465 11.2789 13.6085C11.2741 13.3705 11.2316 13.3377 11.1321 13.377C11.0328 13.4163 10.8296 13.6457 10.6545 14.019C10.4794 14.3925 10.4016 14.8551 10.3021 15.1696C10.2029 15.484 10.0441 15.8027 9.79833 15.785C9.55257 15.7677 9.42029 15.5428 9.34468 15.2175C9.26892 14.892 9.3153 14.4633 9.33588 14.3535C9.38718 14.0783 9.26833 14.1347 9.19555 14.5668C9.15052 14.8333 9.10578 15.2589 9.2643 15.7044C9.42253 16.1499 9.6923 16.316 9.92867 16.2591C10.1652 16.2024 10.3731 15.6477 10.4464 15.3986C10.5197 15.1498 10.8473 14.045 11.0328 13.9907C11.0588 14.1152 10.8886 14.5166 10.8342 14.986C10.7799 15.4555 10.9065 16.0862 11.5024 16.1952C12.0983 16.3044 12.5026 15.9179 12.6492 15.6496C12.796 15.3809 12.8644 15.0992 12.881 14.9574C12.9 15.3175 13.1458 15.8799 13.6232 16.0402L13.6724 16.0544C13.7018 16.3492 13.7496 16.734 13.7936 17.1382C13.7007 17.1668 13.6069 17.1928 13.5136 17.2151C13.5016 17.1763 13.4885 17.1384 13.4725 17.1035C13.3269 16.7902 13.0857 16.5013 12.7515 16.5213C12.4102 16.5416 12.0379 16.9971 12.0542 17.3298C12.0649 17.5536 12.1881 17.7372 12.6361 17.7842C12.8407 17.8059 13.058 17.7831 13.2824 17.7342C13.314 17.8267 13.334 17.9187 13.3362 18.0025C13.1943 18.1685 12.0196 19.0545 11.14 19.1397C10.2605 19.2248 9.9922 18.7637 9.9834 18.3009C9.97684 17.9487 10.1886 17.5973 10.3374 17.3541C10.5504 17.1983 10.7252 17.0034 10.8355 16.8532C10.8655 16.8716 10.894 16.8887 10.9211 16.9046C11.0263 16.9657 11.0682 17.0569 11.0682 17.0569C11.0875 17.0272 11.1779 16.8645 11.1426 16.7849C11.1263 16.7653 11.0468 16.7164 10.9512 16.6583C11.0516 16.4082 11.0503 16.1585 10.9202 16.103C10.7748 16.0411 10.585 16.2131 10.5031 16.3181C10.4606 16.3727 10.4444 16.4346 10.4441 16.4865C10.4435 16.5534 10.4749 16.6138 10.5528 16.6676C10.6303 16.7205 10.7023 16.7685 10.77 16.8118C10.5778 17.0137 10.1236 17.3094 9.8456 17.4831C9.83531 17.4576 9.7946 17.4845 9.73987 17.549L9.66456 17.5955C9.44281 17.7312 8.91102 18.0291 8.80648 18.102C8.70179 18.1751 8.76741 18.1619 8.80648 18.1456C8.8803 18.1058 8.97723 18.0575 9.08609 18.0043C9.24029 17.9289 9.41969 17.8435 9.59507 17.7579C9.54317 17.8459 9.48948 17.9487 9.44191 18.061C9.23269 18.555 8.89446 19.5788 9.62609 20.1949C10.3261 20.7846 11.5293 20.5602 12.5271 19.9474C13.525 19.3344 13.7405 19.1189 13.8965 18.8961ZM10.6431 16.4606C10.6085 16.4351 10.6038 16.4011 10.632 16.3774C10.6679 16.3467 10.7138 16.3178 10.766 16.308C10.8767 16.2875 10.9208 16.4146 10.8764 16.6126C10.7923 16.5611 10.7058 16.5071 10.6431 16.4606ZM12.932 17.2957C12.4239 17.2981 12.4005 17.2059 12.41 17.1468C12.4194 17.0881 12.5776 16.9269 12.7784 17.0332C12.8632 17.0783 12.9588 17.1726 13.0472 17.2911C13.0082 17.294 12.9697 17.2955 12.932 17.2957ZM11.3758 19.9677C10.4159 20.2296 9.47949 19.8237 9.42282 19.02C9.37943 18.4063 9.60327 17.9439 9.74763 17.6833C9.88527 17.6152 10.0153 17.549 10.1228 17.4897C9.87155 17.8944 9.72451 18.4364 9.82279 18.8955C9.93404 19.4156 10.3865 19.7309 11.1526 19.6292C11.911 19.5287 12.9366 18.8073 13.2274 18.5353C13.316 18.4371 13.3744 18.3486 13.4541 18.1682C13.4869 18.0942 13.5329 17.9964 13.5501 17.886C13.5613 17.814 13.5672 17.7371 13.5686 17.6588C13.6576 17.6322 13.7471 17.6024 13.8372 17.5704C13.8677 17.8996 13.8903 18.2242 13.8916 18.5049C13.419 19.0592 12.3357 19.7056 11.3758 19.9677Z" fill="white"/>
<path d="M28.1625 17.8631C28.13 17.3253 28.0516 16.3521 28.0078 15.8583C27.969 15.4189 27.8928 14.8167 27.837 14.2865C27.823 14.1531 27.8215 14.0253 27.823 13.951C27.8246 13.8922 27.8834 13.9148 27.9421 13.9752C28.0009 14.0356 28.0928 14.1114 28.1101 14.1022C28.1675 14.0724 28.0987 13.9252 28.018 13.7668C27.9374 13.6081 27.6175 12.9516 27.5619 12.9267C27.5335 12.914 27.3836 13.3072 27.375 13.3843C27.4036 13.4317 27.4769 13.5052 27.4848 13.7197C27.4928 13.9344 27.6012 14.9213 27.6795 15.7195C27.7338 16.2743 27.8039 17.1796 27.8549 17.8622C27.8524 17.8633 27.9031 18.5112 27.9086 18.584C27.9399 19.0032 27.9236 19.5305 27.9205 19.6221C27.9171 19.7141 27.9843 19.6981 28.0565 19.494C28.13 19.2857 28.1719 18.8205 28.1776 18.4005L28.1625 17.8631Z" fill="white"/>
<path d="M25.4374 15.98C25.339 16.0101 25.1845 15.906 25.1963 15.6877C25.207 15.4906 25.2914 15.306 25.3239 15.1895C25.3686 15.0287 25.3689 14.8737 25.3311 14.9615C25.2458 15.1579 25.0869 15.5375 25.0541 15.795C25.0212 16.0526 25.1047 16.2186 25.2182 16.2752C25.3596 16.3462 25.4614 16.2336 25.5303 16.0676C25.5965 15.9086 25.584 15.723 25.5381 15.7667C25.4996 15.8124 25.4853 15.9653 25.4374 15.98Z" fill="white"/>
<path d="M24.0219 16.7732C24.0741 16.6345 24.0863 16.4985 24.0462 16.5731C23.9557 16.7402 23.7862 17.0631 23.7365 17.2874C23.687 17.5118 23.7471 17.6636 23.8425 17.7211C23.9615 17.793 24.0595 17.7008 24.1336 17.5595C24.2045 17.4242 24.208 17.26 24.1645 17.2956C24.1269 17.3331 24.102 17.4664 24.0591 17.4762C23.9697 17.4959 23.8424 17.3939 23.87 17.2025C23.895 17.0302 23.984 16.8734 24.0219 16.7732Z" fill="white"/>
<path d="M19.9094 19.6988C19.9967 19.5572 20.0401 19.4104 19.9795 19.4846C19.8444 19.6503 19.5886 19.972 19.4854 20.2079C19.3825 20.4438 19.4154 20.621 19.5071 20.7016C19.6214 20.8023 19.749 20.7195 19.8604 20.579C19.9673 20.4443 20.0072 20.2656 19.9513 20.2961C19.9023 20.3304 19.8462 20.4715 19.7968 20.4741C19.6953 20.4791 19.5781 20.3438 19.6499 20.14C19.715 19.9561 19.8463 19.8014 19.9094 19.6988Z" fill="white"/>
<path d="M27.1289 15.5655C27.0288 15.5906 26.8809 15.4785 26.9057 15.261C26.9282 15.0648 27.0238 14.8849 27.063 14.7705C27.1176 14.6121 27.127 14.4575 27.0839 14.543C26.9872 14.7349 26.8059 15.1055 26.7574 15.3611C26.709 15.6166 26.7822 15.7866 26.8922 15.8491C27.0294 15.9269 27.1374 15.8199 27.2164 15.6574C27.292 15.5022 27.2908 15.3163 27.2421 15.3577C27.2011 15.4015 27.1777 15.5533 27.1289 15.5655Z" fill="white"/>
<path d="M27.1032 18.2319C27.2401 18.3097 27.3486 18.2027 27.4274 18.0403C27.5028 17.885 27.5018 17.6991 27.4533 17.7405C27.412 17.7841 27.3886 17.9362 27.3398 17.9483C27.2398 17.9732 27.0915 17.8613 27.1166 17.6439C27.1391 17.4477 27.2345 17.2676 27.2739 17.1533C27.3283 16.9949 27.3377 16.84 27.2948 16.9258C27.1979 17.1177 27.0168 17.4883 26.9684 17.7437C26.9199 17.9994 26.9931 18.1694 27.1032 18.2319Z" fill="white"/>
<path d="M28.8494 14.8273C28.9153 14.6357 28.9266 14.4486 28.8744 14.5521C28.7572 14.7843 28.538 15.2327 28.4793 15.5422C28.4208 15.8515 28.5095 16.057 28.6427 16.1327C28.8084 16.2268 28.9395 16.0973 29.0351 15.901C29.1262 15.713 29.1248 15.4879 29.0661 15.5382C29.0164 15.591 28.9879 15.7747 28.9289 15.7894C28.8081 15.8198 28.6287 15.6842 28.659 15.4212C28.6862 15.1837 28.8018 14.966 28.8494 14.8273Z" fill="white"/>
<path d="M14.8616 18.1416C14.9694 17.9081 15.0085 17.6742 14.9291 17.7987C14.7515 18.0774 14.417 18.6169 14.3028 18.9991C14.1884 19.3814 14.2731 19.65 14.4304 19.7602C14.6267 19.8969 14.8085 19.7486 14.9542 19.5127C15.0936 19.2864 15.1214 19.0031 15.041 19.0597C14.9716 19.1204 14.9117 19.3485 14.8356 19.3605C14.6793 19.385 14.4718 19.1944 14.5442 18.867C14.6098 18.5715 14.7837 18.3107 14.8616 18.1416Z" fill="white"/>
<path d="M29.9669 20.457C30.0495 20.3893 30.768 20.0023 30.9003 19.9237C30.9003 19.9237 31.0355 19.7031 30.9949 19.6797C30.9542 19.6562 30.6919 19.8948 30.5288 19.9014C30.3655 19.908 30.1419 19.7881 30.1348 19.6897C30.156 19.6156 30.3524 19.5042 30.4233 19.4996C30.4943 19.4955 30.4828 19.6571 30.5066 19.6768C30.5303 19.6962 30.6247 19.5652 30.6366 19.5106C30.6482 19.4562 30.6385 19.2281 30.5086 19.2608C30.303 19.3128 29.9928 19.6942 29.9575 19.8141C29.9218 19.9343 30.1135 20.039 30.2533 20.0959C30.2414 20.1003 30.137 20.1505 30.0709 20.2159C30.0709 20.2159 30 20.2954 29.9669 20.457Z" fill="white"/>
<path d="M27.5137 20.9375C27.5963 20.8698 28.3148 20.4831 28.4471 20.4042C28.4471 20.4042 28.5827 20.1836 28.5418 20.1602C28.5011 20.1367 28.2388 20.3752 28.0756 20.3819C27.9124 20.3885 27.6888 20.2685 27.6817 20.1702C27.7028 20.096 27.8992 19.9846 27.9702 19.9804C28.0412 19.9759 28.0297 20.1374 28.0534 20.157C28.0771 20.1767 28.1715 20.0457 28.1835 19.9911C28.1951 19.9367 28.1851 19.7086 28.0555 19.7413C27.8499 19.7935 27.5397 20.1746 27.5043 20.2949C27.4687 20.4148 27.6603 20.5195 27.7999 20.5764C27.7883 20.5808 27.6839 20.6309 27.6178 20.6964C27.6178 20.6964 27.5468 20.7759 27.5137 20.9375Z" fill="white"/>
<path d="M21.9933 14.0012C22.0577 14.0761 22.4798 14.6123 22.8104 14.9494C23.1409 15.2868 23.7074 15.8327 24.1236 16.2069C24.2041 16.2795 24.2896 16.3581 24.3765 16.4398C24.4815 17.2458 24.6029 18.2715 24.6539 18.6956C24.7042 19.1132 24.7116 19.6406 24.7127 19.7324C24.7136 19.8244 24.7798 19.8057 24.8427 19.5993C24.9271 19.3223 24.9368 18.605 24.8921 18.1313C24.8643 17.8387 24.7989 17.2907 24.7355 16.7853C24.9812 17.0281 25.2134 17.269 25.3699 17.4493C25.6575 17.7804 25.8996 18.0301 26.0471 18.3859C26.1515 18.6377 26.1409 18.838 26.1837 18.8776C26.2206 18.9118 26.2615 18.6105 26.2159 18.3184C26.1419 17.8439 26.0405 17.6428 25.4315 16.9654C25.1991 16.7065 24.9256 16.4358 24.6582 16.1828C24.6479 16.1048 24.6385 16.0325 24.63 15.9684C24.6089 15.81 24.4025 14.4403 24.3862 14.2869C24.3724 14.1533 24.348 13.996 24.35 13.9216C24.3515 13.8625 24.3891 13.8855 24.4481 13.9459C24.5069 14.0062 24.6098 14.1116 24.6272 14.1024C24.6848 14.0726 24.6207 13.8957 24.54 13.737C24.4596 13.5786 24.1827 12.9518 24.127 12.927C24.0989 12.9143 23.9329 13.3074 23.9244 13.3843C23.9532 13.4318 24.0262 13.5057 24.0341 13.7199C24.0364 13.7798 24.0895 14.3431 24.1561 14.8751C24.2152 15.3451 24.2882 15.7908 24.2958 15.8424L24.2961 15.8464C24.0204 15.5949 23.7775 15.3813 23.6301 15.2472C23.2857 14.9341 22.5248 14.191 22.4942 14.0798C22.4874 14.0446 22.5464 14.0663 22.655 14.0836C22.764 14.1012 22.8609 14.1382 22.8435 14.0847C22.8356 14.0595 22.7938 13.9972 22.6899 13.9329C22.5858 13.8686 22.3192 13.7017 22.1208 13.5837C21.922 13.4658 21.8236 13.367 21.7826 13.3952C21.7623 13.4092 21.7804 13.813 21.7923 13.8633C21.8419 13.8676 21.9292 13.9261 21.9933 14.0012Z" fill="white"/>
<path d="M22.5401 13.2717C22.6217 13.2538 23.0082 13.2636 23.1485 13.2931C23.0898 13.3339 22.6943 13.5337 22.6162 13.5812C22.5385 13.6289 22.5188 13.6565 22.5578 13.6518C22.6712 13.6204 22.9266 13.5812 23.0491 13.5174C23.1645 13.4634 23.3612 13.1997 23.4377 13.1014C23.5138 13.0031 23.5138 12.954 23.4944 12.9277C23.4162 12.8852 22.9125 12.8426 22.6695 12.9029C22.6023 12.9485 22.4708 13.1916 22.4514 13.2422C22.432 13.2931 22.4585 13.2896 22.5401 13.2717Z" fill="white"/>
<path d="M24.6857 13.2401C24.7516 13.2256 25.0631 13.2335 25.176 13.2572C25.1287 13.2901 24.8102 13.4512 24.7473 13.4898C24.6842 13.528 24.6685 13.5503 24.7 13.5464C24.7914 13.5214 24.9974 13.4898 25.0959 13.4381C25.1888 13.3945 25.3474 13.182 25.409 13.103C25.4702 13.0236 25.4702 12.9842 25.4546 12.9631C25.392 12.9285 24.9859 12.8943 24.7901 12.943C24.7358 12.9796 24.6301 13.1756 24.6144 13.2164C24.5984 13.2572 24.6201 13.2546 24.6857 13.2401Z" fill="white"/>
<path d="M26.4359 13.2206C26.5015 13.2061 26.813 13.2139 26.9259 13.2376C26.8789 13.2706 26.5602 13.4316 26.4972 13.47C26.4344 13.5084 26.4187 13.5308 26.4502 13.5269C26.5416 13.5018 26.7635 13.47 26.8621 13.4185C26.9551 13.375 27.0653 13.1625 27.1269 13.0832C27.1885 13.0041 27.1885 12.9644 27.1726 12.9436C27.1099 12.909 26.7358 12.8748 26.5402 12.9232C26.486 12.9601 26.3799 13.156 26.3643 13.1968C26.3486 13.2376 26.3699 13.235 26.4359 13.2206Z" fill="white"/>
<path d="M25.3444 14.0691C25.241 14.232 25.3707 14.3636 25.418 14.4953C25.3541 14.5536 25.256 14.5004 25.2232 14.4492C25.1534 14.3443 25.1768 14.1304 25.0947 14.0975C25.0736 14.1553 25.0599 14.2194 25.0599 14.2194C25.0599 14.2194 25.1224 14.3657 25.1067 14.4624C25.0967 14.5209 25.0451 14.5891 24.977 14.5905C24.7954 14.5949 24.8848 14.3261 24.8147 14.1737C24.8004 14.211 24.7901 14.2509 24.7734 14.2858C24.7863 14.3255 24.7933 14.3812 24.7954 14.4134C24.7995 14.4772 24.7945 14.546 24.8054 14.6005C24.8204 14.6775 24.8632 14.7287 24.9285 14.7336C25.0642 14.7444 25.1261 14.6345 25.1466 14.5443C25.17 14.6363 25.3494 14.7376 25.4377 14.6247C25.5546 14.4758 25.4611 14.3483 25.4011 14.2082C25.3579 14.1047 25.3704 14.0367 25.3444 14.0691Z" fill="white"/>
<path d="M20.2472 13.6366C20.2566 13.7036 20.291 13.7494 20.3473 13.7562C20.4633 13.771 20.522 13.6788 20.544 13.6021C20.5593 13.6822 20.7093 13.7765 20.7909 13.683C20.8987 13.5594 20.824 13.4457 20.779 13.3226C20.7468 13.2313 20.7606 13.1734 20.7368 13.2003C20.6399 13.3363 20.7456 13.4553 20.78 13.5707C20.7222 13.6181 20.6403 13.5683 20.6144 13.5232C20.5592 13.4299 20.5893 13.2467 20.5204 13.2148C20.4995 13.2639 20.4848 13.3183 20.4848 13.3183C20.4848 13.3183 20.5314 13.447 20.5132 13.5296C20.5021 13.5796 20.4545 13.6363 20.3954 13.6348C20.239 13.6313 20.3288 13.4033 20.2754 13.2694C20.2615 13.3007 20.2506 13.335 20.2344 13.364C20.2438 13.399 20.2472 13.447 20.2472 13.475C20.2484 13.5301 20.2406 13.5889 20.2472 13.6366Z" fill="white"/>
<path d="M23.9537 19.954C23.9712 19.9262 24.0096 19.8501 23.9999 19.7982C23.9903 19.7462 23.9266 19.5293 23.8029 19.475C23.6801 19.4206 23.587 19.5345 23.5281 19.693L23.4872 19.692C23.4775 19.7154 23.4653 19.7504 23.4556 19.8137C23.4419 19.9051 23.416 19.964 23.2592 20.1063C23.1274 20.2254 22.7003 20.5115 22.4235 20.646C22.1464 20.7807 21.947 20.8969 21.8735 20.9322C21.8003 20.9669 21.8216 20.9799 21.8949 20.958C21.9679 20.9362 22.3357 20.8177 22.4823 20.7574C22.6286 20.6966 22.8075 20.5966 23.0232 20.4567C23.263 20.3011 23.4063 20.1456 23.4544 20.0077C23.4887 19.9094 23.4975 19.8701 23.4975 19.8701C23.4975 19.8701 23.5876 19.9233 23.7405 19.9582C23.8927 19.9932 23.936 19.9819 23.9537 19.954ZM23.747 19.6458C23.8149 19.6716 23.8562 19.7455 23.8684 19.7903C23.7906 19.7921 23.6473 19.7525 23.5863 19.7249C23.6229 19.6539 23.6868 19.6232 23.747 19.6458Z" fill="white"/>
<path d="M22.3264 20.1045C22.1137 20.075 21.5779 19.9935 21.4468 19.6825C21.5568 19.522 22.0637 19.3188 22.6987 19.1286C23.3337 18.9389 23.9972 18.6927 24.1755 18.5738C24.2146 18.5606 24.2902 18.5646 24.2902 18.5646C24.3221 18.4726 24.4816 18.1497 24.4915 18.0822C24.3141 18.0922 23.2202 18.1726 22.7344 18.1987C22.2482 18.2249 21.312 18.2185 21 18.2151C21.1913 18.0775 21.6454 17.8089 22.2944 17.5797C22.3785 17.55 22.4564 17.5231 22.529 17.4988C22.583 17.595 22.6231 17.6902 22.6315 17.773C22.6728 17.7306 22.7038 17.5898 22.6934 17.4453C23.0717 17.3245 23.2666 17.2845 23.3507 17.2618C23.4038 17.193 23.4979 16.9148 23.5119 16.7125C23.4554 16.6095 23.2784 16.4813 23.1209 16.3711C22.9039 16.2196 22.6699 16.0875 22.4364 16.1453C22.1171 16.2236 22.0531 16.8101 22.1276 16.9345C22.1513 16.9738 22.2075 17.0434 22.2739 17.1293C22.0406 17.221 21.7966 17.3288 21.5816 17.4421C21.1026 17.6944 20.5678 17.9705 20.4118 18.2359L20.3671 18.2577C20.3546 18.2828 20.2559 18.6935 20.2415 18.7378C20.3412 18.7343 21.085 18.7357 21.6031 18.7196C22.1209 18.703 22.5736 18.6866 22.7509 18.6866C22.4883 18.7488 21.8001 19.0045 21.6022 19.155C21.4043 19.3058 21.2799 19.5351 21.2766 19.9282C21.0922 19.8559 20.7493 19.6909 20.4572 19.2957C20.1315 18.8554 20.1989 18.4024 20.0685 17.8081C19.8792 16.9455 19.4747 16.2172 19.2228 15.9944C19.138 16.2989 19.1271 16.5283 19.1271 16.5283C19.1271 16.5283 19.4427 17.2259 19.6024 17.6713C19.7621 18.1168 19.8985 18.5556 19.8918 18.6539C19.7603 18.9424 18.9817 19.5465 18.3328 19.9002C17.7175 20.2355 17.1755 20.2716 16.9834 20.0328C16.9457 19.9862 16.92 19.9311 16.9055 19.8686C16.9891 19.8296 17.0729 19.7903 17.1588 19.751C17.712 19.499 18.6946 18.9684 18.9249 18.6901C19.1733 18.3527 19.1699 17.8777 19.0242 17.6058C18.8791 17.334 18.6515 17.0194 18.6338 16.9081C18.6199 16.8556 18.7816 16.9295 18.877 16.9345C18.9232 16.931 18.9001 16.8688 18.801 16.7705C18.7216 16.6922 18.4149 16.4381 18.2977 16.339C18.2683 16.3138 18.2464 16.324 18.2404 16.3506C18.2176 16.452 18.1709 16.6693 18.1528 16.7766L18.1654 16.8307C18.1991 16.8506 18.2379 16.8731 18.2566 16.9292C18.2832 17.0088 18.3761 17.2308 18.5284 17.5109C18.6809 17.791 18.9013 18.1001 18.9229 18.2562C18.7437 18.4848 17.8398 18.9716 16.9594 19.3728C17.0138 19.2041 17.0997 19.0132 17.2136 18.8013C17.246 18.7655 17.2755 18.7212 17.303 18.6713C17.3908 18.5108 17.3993 18.3146 17.3461 18.3561C17.3004 18.4001 17.2676 18.5593 17.2154 18.5701C17.1085 18.592 16.9585 18.4672 16.9962 18.2391C17.0304 18.0332 17.1404 17.8474 17.188 17.7284C17.2539 17.5637 17.2719 17.401 17.222 17.4896C17.1097 17.6873 16.899 18.0703 16.8343 18.3379C16.7698 18.6051 16.8383 18.7878 16.9512 18.8585C16.9934 18.8854 17.0338 18.8938 17.0723 18.8886C16.995 19.0356 16.8996 19.2159 16.8299 19.431C16.4759 19.5894 16.1314 19.731 15.8463 19.833C14.8213 20.1999 14.0909 20.4161 13.58 20.5766L13.56 20.5856C13.5976 20.4641 13.5925 20.3604 13.5522 20.3916C13.5066 20.4358 13.474 20.5951 13.4218 20.6056C13.3148 20.6275 13.1648 20.5029 13.2024 20.2745C13.2367 20.0687 13.3467 19.8831 13.3943 19.764C13.4599 19.5995 13.4781 19.4365 13.4283 19.5252C13.3159 19.7229 13.1053 20.1059 13.0406 20.3734C12.976 20.6407 13.0445 20.8234 13.1572 20.8943C13.2977 20.9825 13.4174 20.8743 13.5093 20.7069L13.5415 20.6381C13.5734 20.6381 13.6273 20.6307 13.7076 20.6127C13.9418 20.5601 14.5271 20.4751 15.3319 20.3702C15.9279 20.2927 16.3393 20.1291 16.737 19.9469C16.7352 19.9909 16.7348 20.0357 16.7367 20.0819C16.7584 20.628 17.1163 20.7822 17.6057 20.68C18.0778 20.5809 18.7362 20.148 19.1308 19.8559C19.5423 19.5515 19.7797 19.2795 19.8402 19.1846C19.95 18.952 19.9801 18.695 19.9876 18.5738C20.0235 18.9078 20.0526 19.3699 20.3684 19.7663C20.6592 20.1311 21.2552 20.6402 22.376 20.6541C22.3797 20.5208 22.3264 20.1045 22.3264 20.1045ZM22.2522 16.7205C22.4127 16.5404 22.7551 16.6582 23.012 16.8865C22.8804 16.9174 22.7016 16.9724 22.5043 17.0428C22.387 16.9015 22.2563 16.7653 22.2522 16.7205Z" fill="white"/>
<path d="M15.9532 14.2536C16.0259 14.2204 16.2486 14.1203 16.4885 13.9805C16.728 13.8417 16.9531 13.6734 17.0631 13.5616C17.1053 13.5187 17.1429 13.4852 17.1669 13.4454C17.2388 13.4752 17.2883 13.5061 17.3192 13.5182C17.3656 13.5361 17.4274 13.5619 17.4677 13.4298C17.5078 13.2979 17.4546 13.2127 17.3761 13.1109C17.3098 13.0256 17.2045 12.8973 17.119 12.8655C17.0466 12.8383 17.0121 13.0002 17.0232 12.9962H17.0716L17.081 13.0007C16.9812 13.0511 16.904 13.2077 16.8962 13.2627C16.8883 13.3225 16.8997 13.3667 17.0428 13.4035L17.1004 13.4204C16.981 13.5619 16.7583 13.7082 16.6066 13.8119C16.3914 13.9594 16.086 14.1437 15.9991 14.197C15.9121 14.2499 15.9195 14.2666 15.9532 14.2536ZM17.2464 13.2143L17.2542 13.1436C17.3548 13.2583 17.4295 13.3948 17.4221 13.4141C17.3758 13.4178 17.3183 13.3751 17.2176 13.3321C17.2288 13.2979 17.2382 13.2601 17.2464 13.2143ZM16.9574 13.2145C16.9568 13.1929 16.9956 13.1331 17.0776 13.1004C17.1595 13.0675 17.1957 13.1594 17.2029 13.2714L17.1785 13.3162L17.1047 13.2907C17.0266 13.2678 16.9738 13.2549 16.9574 13.2145Z" fill="white"/>
<path d="M21.3141 16.4101C21.4322 16.332 21.7569 16.0976 21.941 15.944C22.0691 15.8373 22.2196 15.6802 22.3218 15.5472C22.3859 15.5887 22.4457 15.6256 22.5001 15.6575C22.6051 15.7189 22.6473 15.8099 22.6473 15.8099C22.6667 15.7801 22.7571 15.6171 22.7217 15.5379C22.7005 15.5119 22.5714 15.4365 22.4394 15.3557C22.5064 15.2054 22.5985 14.9455 22.4666 14.8545C22.3537 14.7773 22.1632 14.9051 22.0751 15.071C22.0023 15.2083 21.9929 15.3248 22.1318 15.4203C22.1708 15.4471 22.2083 15.4725 22.245 15.4966C22.1049 15.6498 21.8469 15.8765 21.6634 16.0308C21.4353 16.2216 21.2197 16.4087 21.1821 16.4534L21.1712 16.4707C21.1214 16.332 21.135 16.2464 21.098 16.2925C20.9383 16.543 21.1384 16.7459 21.2112 16.9486C21.1128 17.038 20.962 16.9559 20.9115 16.8777C20.8038 16.7159 20.8397 16.3872 20.7137 16.3363C20.6812 16.4251 20.66 16.524 20.66 16.524C20.66 16.524 20.7559 16.7491 20.7316 16.8977C20.7165 16.9876 20.6369 17.0928 20.5324 17.0946C20.2526 17.1018 20.3905 16.6879 20.2826 16.4535C20.2607 16.511 20.245 16.5725 20.2188 16.6257C20.2386 16.6873 20.2495 16.7728 20.2523 16.8223C20.2595 16.9206 20.2514 17.0261 20.268 17.1105C20.2911 17.2291 20.357 17.3079 20.4577 17.3152C20.6663 17.3322 20.7616 17.1626 20.7932 17.0243C20.8291 17.1658 21.1055 17.3213 21.2413 17.1478C21.4213 16.9186 21.2773 16.7222 21.1852 16.5066L21.1744 16.4786C21.1872 16.4831 21.2354 16.462 21.3141 16.4101ZM22.1301 15.119C22.1993 14.9906 22.345 14.9797 22.3887 15.047C22.4235 15.1005 22.4263 15.2049 22.3741 15.3151C22.2456 15.2344 22.1309 15.1554 22.1301 15.119Z" fill="white"/>
<path d="M16.7621 15.5936C16.5163 15.5762 16.384 15.3511 16.3084 15.0258C16.2327 14.7006 16.2791 14.2716 16.2996 14.1617C16.3202 14.052 16.2043 14.1087 16.1593 14.3752C16.1146 14.6414 16.0695 15.0672 16.228 15.5129C16.3863 15.9581 16.656 16.1243 16.8924 16.0673C17.1288 16.0107 17.3368 15.456 17.4102 15.2071C17.4834 14.9581 17.811 13.9427 17.9966 13.8881C18.0225 14.0126 17.8524 14.3249 17.7979 14.7943C17.7438 15.2638 17.838 15.8795 18.434 15.9887C19.0299 16.0981 19.4342 15.7115 19.5807 15.4428C19.7275 15.1744 19.7959 14.8924 19.8125 14.7506C19.8316 15.1109 20.0773 15.6734 20.5547 15.8338C21.016 15.9887 21.3683 15.8469 21.524 15.646C21.6623 15.4676 21.7749 15.1001 21.7846 14.8183C21.794 14.5368 21.5506 14.0215 21.4962 13.8575C21.4416 13.6938 21.4134 13.5802 21.4086 13.5235C21.404 13.4668 21.5318 13.5891 21.6122 13.6131C21.6666 13.624 21.6475 13.5061 21.5813 13.4252C21.5152 13.3446 21.1576 12.8023 21.1326 12.8401C21.1172 12.8627 20.9741 13.2616 20.9647 13.3226C21.0213 13.3599 21.0869 13.4624 21.0919 13.5607C21.0963 13.659 21.191 14.0913 21.2786 14.3315C21.3661 14.5717 21.5363 15.0324 21.5482 15.1591C21.378 15.2791 20.9948 15.4317 20.6308 15.277C20.2667 15.1218 20.1506 14.8969 20.1105 14.4951C20.0848 14.2384 20.0823 13.7655 19.9907 13.3701C19.9391 13.1466 19.8304 12.9193 19.7012 12.7987C19.6708 12.8727 19.5336 13.3292 19.5336 13.3292C19.5784 13.4602 19.7175 13.9013 19.713 14.2835C19.7081 14.6654 19.678 15.0392 19.2497 15.2967C18.8217 15.5543 18.2119 15.4517 18.0534 15.0498C17.8949 14.648 18.2472 13.7441 18.2426 13.5061C18.2378 13.2682 18.195 13.2352 18.0959 13.2746C17.9966 13.3139 17.793 13.5434 17.6182 13.9166C17.4431 14.2901 17.3654 14.6633 17.2658 14.9778C17.1667 15.2923 17.0078 15.611 16.7621 15.5936Z" fill="white"/>
<path d="M9.62211 14.2018C9.92454 14.1798 10.1801 13.9506 10.2462 13.8896C10.3124 13.8283 10.3481 13.7369 10.3006 13.7716C9.95079 14.0839 9.48267 14.0927 9.45643 14.0402C9.46836 13.9878 9.59154 13.9026 9.77124 13.7826C9.8804 13.7097 9.97763 13.6413 10.0504 13.5444L10.0702 13.5478C10.2034 13.5771 10.3572 13.6352 10.4041 13.5886C10.4806 13.5132 10.4908 13.3897 10.4079 13.2565C10.3378 13.1434 10.1743 13.0382 10.0324 12.9623C9.89069 12.8867 9.86325 13.0073 9.84505 13.0504C9.82761 13.0905 9.83476 13.1247 9.86474 13.1255C9.81911 13.1877 9.7866 13.2678 9.77466 13.334C9.76691 13.3767 9.77317 13.4117 9.79062 13.4406C9.79569 13.4487 9.82194 13.4808 9.8716 13.4998L9.93319 13.519C9.82716 13.6169 9.70502 13.6936 9.6409 13.7323C9.52517 13.8022 9.38798 13.9245 9.34547 14.0509C9.30282 14.1778 9.31938 14.2237 9.62211 14.2018ZM10.1567 13.3097L10.1684 13.2452V13.2038C10.2643 13.2736 10.4176 13.4057 10.4082 13.4848C10.3475 13.471 10.2317 13.4466 10.1218 13.4184C10.1359 13.3854 10.1473 13.3493 10.1567 13.3097ZM9.87249 13.3298C9.80196 13.2736 9.8707 13.2175 9.93319 13.1813C10.0139 13.1347 10.0611 13.1732 10.1024 13.2955C10.088 13.3305 10.0677 13.3646 10.0438 13.3973C9.98106 13.3778 9.89263 13.3467 9.87249 13.3298Z" fill="white"/>
<path d="M10.5294 17.6173C10.4424 17.6927 10.4087 17.9382 10.4265 17.9529C10.4441 17.9677 10.7158 18.0594 10.7583 18.0792L10.7777 18.0053C10.9071 18.1215 11.0506 18.7014 11.0825 18.7031C11.1144 18.7046 11.1606 18.6375 11.1909 18.4835C11.2188 18.3406 11.2467 18.1269 11.2757 17.9529C11.3029 17.7937 11.3451 17.7025 11.4408 17.6843C11.5367 17.6664 11.6077 17.7893 11.6325 17.8728C11.6325 17.8728 11.6997 17.7122 11.714 17.6124C11.6981 17.5598 11.5489 17.3618 11.4267 17.4273C11.3042 17.493 11.2276 17.7708 11.2028 17.9445C11.1779 18.118 11.1588 18.333 11.1287 18.3675C11.0971 18.2194 10.9958 17.9544 10.8735 17.8055C10.736 17.6387 10.5753 17.5775 10.5294 17.6173Z" fill="white"/>
<path d="M9.37813 17.3197C9.49161 17.2886 9.74707 17.2494 9.86935 17.1856C9.98463 17.1315 10.1813 16.8679 10.2577 16.7696C10.3339 16.6713 10.334 16.622 10.3147 16.5959C10.2367 16.5532 9.73275 16.5108 9.48967 16.5711C9.42257 16.6164 9.29118 16.8595 9.2718 16.9104C9.25211 16.961 9.27896 16.9578 9.36038 16.9399C9.44195 16.9217 9.82864 16.9315 9.96852 16.961C9.91021 17.0021 9.51473 17.2019 9.43658 17.2494C9.35874 17.2969 9.33905 17.3247 9.37813 17.3197Z" fill="white"/>
<path d="M32.8016 18.7275C32.79 18.4328 32.6456 17.9805 32.0968 17.2864C31.9074 17.0468 31.6409 16.7349 31.3598 16.4154C31.3521 16.3065 31.3443 16.207 31.3373 16.1215C31.3005 15.6818 31.1757 14.7848 31.122 14.2545C31.1089 14.1208 31.1078 13.9785 31.1098 13.9041C31.1117 13.8451 31.1542 13.853 31.2127 13.9137C31.2711 13.9742 31.3612 14.0626 31.38 14.0565C31.4199 14.0427 31.3852 13.9088 31.3054 13.7501C31.2258 13.5912 30.9247 12.9483 30.8694 12.9233C30.8409 12.9106 30.6989 13.2881 30.6901 13.3653C30.7183 13.4128 30.7911 13.4865 30.7981 13.7012C30.8055 13.9157 30.935 15.1828 31.0094 15.9813L31.0134 16.0258C30.5932 15.5566 30.1974 15.1288 30.0345 14.9553C30.0064 14.9253 29.9753 14.8911 29.9419 14.8544C29.9154 14.6408 29.8909 14.4373 29.8741 14.2692C29.8604 14.1358 29.8595 13.9932 29.8618 13.9189C29.8632 13.86 29.906 13.868 29.9644 13.9287C30.0232 13.9892 30.113 14.0776 30.1318 14.0713C30.1717 14.0577 30.137 13.9239 30.0571 13.7649C29.9776 13.6059 29.6637 12.9483 29.608 12.9233C29.5798 12.9106 29.4313 13.3182 29.4225 13.3948C29.451 13.4425 29.5236 13.5163 29.5308 13.731C29.5336 13.8221 29.5573 14.0984 29.5889 14.4471C29.3104 14.1161 29.0376 13.7694 29.0182 13.699C29.0114 13.6642 29.0703 13.6856 29.1793 13.7033C29.2879 13.7206 29.3897 13.7533 29.3723 13.6995C29.3641 13.6746 29.3226 13.6123 29.2187 13.5477C29.1146 13.4833 28.8479 13.3165 28.6496 13.1988C28.4508 13.0809 28.3524 12.9818 28.3114 13.01C28.2911 13.0239 28.3091 13.4281 28.3208 13.4781C28.3707 13.4827 28.463 13.5197 28.5218 13.5983C28.5811 13.6769 28.9611 14.2097 29.2616 14.57C29.3481 14.6736 29.4835 14.8344 29.642 15.02C29.6731 15.3519 29.7056 15.6948 29.7324 15.9813C29.7934 16.6348 30.0126 18.3584 30.0147 18.9186C29.8529 19.0704 29.522 19.2822 29.1815 19.2866C28.8411 19.2908 28.6544 19.2012 28.5172 18.9481C28.4748 18.8696 28.4354 18.7908 28.3964 18.7193C28.3036 18.5496 28.0966 18.4543 27.8971 18.5011L27.8667 18.5092L27.8124 18.5353C27.6773 18.606 27.5375 18.7246 27.4009 18.9085C27.1647 19.2276 27.0138 19.5736 26.839 19.8734C26.6569 20.1855 26.5172 20.395 26.1978 20.3449C25.9729 20.3096 25.8021 20.1167 25.6968 19.8794C25.9926 19.6748 26.2073 19.4079 26.3643 19.038C26.5688 18.5572 26.6417 18.0152 26.6235 17.4058C26.6061 16.8322 26.3447 15.4828 26.2756 14.9657C26.2067 14.4482 26.1077 14.0236 26.1192 13.9131C26.1299 13.8065 26.2996 14.0575 26.3866 14.0762C26.431 14.0663 26.4071 13.9062 26.3227 13.771C26.2655 13.679 26.0841 13.2607 25.9654 13.059C25.9097 12.9636 25.8962 12.9083 25.8703 12.897C25.8446 12.8852 25.647 13.3073 25.6709 13.3532C25.7294 13.4367 25.7693 13.4766 25.7816 13.6263C25.7941 13.7761 25.9295 14.8752 26.0479 15.6847C26.1371 16.2955 26.3341 17.405 26.3594 18.2251C26.3678 18.4927 26.3296 18.6847 26.2965 18.792C26.2115 18.9564 26.0729 19.1389 25.5862 19.4854C25.511 18.9958 25.5928 18.598 25.5215 18.5612C25.4411 18.5699 25.4283 18.7981 25.4192 19.0796C25.4147 19.2096 25.4204 19.3897 25.4448 19.5831C24.847 19.9827 24.0572 20.3466 23.6863 20.5408C23.4687 20.655 23.5472 20.6816 23.7313 20.6247C23.9155 20.5674 24.9276 20.302 25.4679 20.0179L25.5261 19.9856C25.5535 20.0809 25.5868 20.1731 25.6277 20.2582C25.8094 20.636 26.0692 20.8603 26.3506 20.8384C26.5873 20.8202 26.7589 20.5669 26.9087 20.2648C27.06 19.959 27.3158 19.3783 27.5666 19.1622C27.663 19.0789 27.7626 19.013 27.8595 18.9735C27.8595 18.9735 28.0309 18.9162 28.1885 19.0192C28.245 19.0565 28.2872 19.1094 28.3139 19.1687C28.3761 19.3048 28.4496 19.4779 28.5999 19.623C28.8648 19.8781 29.2907 19.8254 29.6101 19.677C29.9291 19.5285 30.092 19.2969 30.1629 19.0217C30.284 18.5509 30.2646 18.0684 30.2415 17.6399C30.2148 17.1509 30.1367 16.6511 30.0923 16.1215C30.0779 15.9512 30.05 15.7143 30.018 15.4575C30.3291 15.8165 30.6521 16.1809 30.848 16.3801C30.9156 16.4489 30.9869 16.5253 31.0601 16.606C31.1186 17.4076 31.1748 18.4106 31.2044 18.8316C31.2338 19.251 31.2149 19.7782 31.2115 19.8699C31.2079 19.9616 31.2589 19.9459 31.3321 19.7424C31.4302 19.4693 31.4918 18.753 31.4703 18.278C31.4575 17.9958 31.4293 17.4812 31.3989 16.9945C31.6404 17.2814 31.8696 17.5711 32.0187 17.7666C32.2838 18.1138 32.5274 18.5266 32.6125 18.7841C32.6975 19.042 32.7069 19.1184 32.7235 19.1643C32.74 19.2102 32.8132 19.0221 32.8016 18.7275Z" fill="white"/>
<path d="M28.3263 28.5368C28.3024 28.4683 28.229 28.4181 28.1413 28.4181C28.0536 28.4181 27.9804 28.4683 27.9563 28.5368H27.1258C27.1174 28.4447 27.1256 28.3521 27.1517 28.2619L28.8663 28.2609L28.9141 28.3414C28.9572 28.4139 29.0117 28.4794 29.0748 28.5368L28.3263 28.5368ZM29.4614 27.7401H27.401C27.5593 27.6258 27.6424 27.459 27.6201 27.2903C27.6059 27.1839 27.5005 27.1045 27.3721 27.0938H27.3076C27.1513 27.109 27.038 27.2216 27.0545 27.3453L27.0608 27.3929L27.0684 27.466C27.0768 27.5579 27.0687 27.6502 27.0428 27.74H11.8125C12.0387 28.0691 12.451 28.2709 12.8963 28.2706L26.7942 28.262C26.6352 28.3765 26.5519 28.5436 26.5743 28.7126C26.5908 28.8363 26.7305 28.9244 26.8868 28.9091C27.0429 28.8938 27.1562 28.7812 27.1399 28.6574L27.1336 28.6099H27.9504C27.9647 28.6897 28.0444 28.7508 28.1413 28.7508C28.2383 28.7508 28.318 28.6897 28.3325 28.6099H29.1633V28.608C29.3368 28.7311 29.5572 28.8019 29.7904 28.8019C30.0098 28.8019 30.1876 28.6494 30.1876 28.4613V28.3629C30.1876 28.019 29.8626 27.74 29.4614 27.74" fill="white"/>
</g>
<rect x="0.5" y="0.5" width="41" height="41" rx="20.5" stroke="white"/>
<defs>
<clipPath id="clip0_865_7617">
<rect width="42" height="42" rx="21" fill="white"/>
</clipPath>
</defs>
</svg>
